<svg width="66" height="66" viewBox="0 0 66 66" fill="none" xmlns="http://www.w3.org/2000/svg">
<path d="M34.5 36.9C33.6 34.2 34.2 32.1 34.5 30.9C34.2 29.7 33.6 27.9 34.2 25.2C35.1 22.8 36.6 21.6 37.5 20.7C37.8 19.5 38.4 17.7 40.8 15.9C42.9 14.4 45 14.4 46.2 14.4C46.5 14.1 47.1 13.8 47.7 13.5V4.8C48 2.1 45.9 0 43.2 0H4.8C2.1 0 0 2.1 0 4.8V34.2C0 36.9 2.1 39 4.8 39H35.7C35.1 38.4 34.8 37.8 34.5 36.9ZM6 12V6L24 15L42 6V12L24 21L6 12ZM64.8 26.7C64.2 24.9 62.7 24.6 61.8 23.7C61.2 22.8 61.2 21 59.7 20.1C58.2 18.9 56.7 19.5 55.5 19.2C54.3 18.9 53.4 17.4 51.6 17.4C49.8 17.4 48.9 18.6 47.7 19.2C46.5 19.5 45 18.9 43.5 20.1C42 21 42.3 22.5 41.4 23.7C40.5 24.6 39 25.2 38.4 26.7C37.8 28.5 39 29.7 39 30.9C39 32.1 37.8 33.3 38.4 35.1C39 36.9 40.5 37.2 41.4 38.1C42 39 42 40.8 43.5 41.7C45 42.9 46.5 42.3 47.7 42.6C48.9 42.9 49.8 44.4 51.6 44.4C53.4 44.4 54.3 43.2 55.5 42.6C56.7 42.3 58.2 42.9 59.7 41.7C61.2 40.5 61.2 39 61.8 38.1C62.7 37.2 64.2 36.6 64.8 35.1C65.4 33.3 64.2 32.1 64.2 30.9C64.2 29.7 65.4 28.5 64.8 26.7ZM51.6 40.2C46.5 40.2 42.6 36 42.6 31.2C42.6 26.4 46.8 22.2 51.6 22.2C56.4 22.2 60.6 26.4 60.6 31.2C60.6 36 56.7 40.2 51.6 40.2ZM56.1 30.9C56.1 33.3 54 35.4 51.6 35.4C49.2 35.4 47.1 33.3 47.1 30.9C47.1 28.5 49.2 26.4 51.6 26.4C54 26.4 56.1 28.5 56.1 30.9ZM55.5 48.3L54 56.4L52.2 65.7L46.2 60L39 63.3L42 46.2C43.2 46.8 44.7 47.1 46.2 47.1C47.1 47.7 48.3 48.3 49.2 48.6C49.8 48.9 50.7 48.9 51.6 48.9C53.1 49.2 54.3 48.9 55.5 48.3ZM65.1 55.5L59.1 53.4L60.3 46.8L62.1 45.9L62.4 45.6L65.1 55.5Z" fill="#F1C40F"/>
</svg>
