<svg width="48" height="48" viewBox="0 0 48 48" fill="none" xmlns="http://www.w3.org/2000/svg">
<path d="M24.2318 18.0244L24.2195 18.0573L24.2119 18.0915C23.7911 19.9851 24.141 21.3233 24.3686 22.1936C24.3797 22.2359 24.3905 22.2772 24.4009 22.3174C24.1743 23.2131 23.7739 24.8028 24.4423 26.8081C24.5484 27.1263 24.6584 27.4069 24.796 27.6667H3.46667C1.79281 27.6667 0.5 26.3739 0.5 24.7V3.46667C0.5 1.79281 1.79281 0.5 3.46667 0.5H31.2C32.8856 0.5 34.1332 1.79004 33.9531 3.41145L33.95 3.43897V3.46667V9.44202C33.8231 9.50692 33.6967 9.5736 33.579 9.64088C33.4453 9.71727 33.3058 9.80371 33.1809 9.90028C32.2674 9.90459 30.72 9.97361 29.1761 11.0765L29.176 11.0764L29.1667 11.0833C27.4024 12.4065 26.8821 13.7542 26.6337 14.691C26.5788 14.7444 26.5205 14.8001 26.4595 14.8585C25.8081 15.4815 24.8372 16.4101 24.2318 18.0244ZM3.83333 8.66667V8.97568L4.10973 9.11388L17.1097 15.6139L17.3333 15.7257L17.5569 15.6139L30.5569 9.11388L30.8333 8.97568V8.66667V4.33333V3.52432L30.1097 3.88612L17.3333 10.2743L4.55694 3.88612L3.83333 3.52432V4.33333V8.66667ZM44.2173 17.394L44.2448 17.4352L44.2798 17.4702C44.4792 17.6696 44.7033 17.8275 44.9094 17.9637C44.976 18.0077 45.0394 18.0487 45.1006 18.0883C45.2407 18.1788 45.3699 18.2624 45.5022 18.3595C45.8558 18.6187 46.152 18.9206 46.3257 19.4414C46.4937 19.9455 46.4178 20.3655 46.2715 20.8044C46.234 20.9168 46.1929 21.0276 46.1495 21.1444L46.1454 21.1553C46.1041 21.2662 46.0602 21.3842 46.021 21.5018C45.9406 21.743 45.8667 22.0199 45.8667 22.3167C45.8667 22.6135 45.9406 22.8903 46.021 23.1315C46.0602 23.2492 46.1041 23.3672 46.1454 23.478L46.1495 23.489C46.1929 23.6058 46.234 23.7165 46.2715 23.8289C46.4164 24.2637 46.4923 24.68 46.3303 25.1779C46.1595 25.5954 45.8604 25.9055 45.4856 26.2054C45.3492 26.3145 45.2138 26.414 45.0718 26.5184C45.0114 26.5628 44.9497 26.6081 44.8862 26.6554C44.683 26.807 44.4691 26.9737 44.2798 27.1631L44.2448 27.1981L44.2173 27.2393C44.0761 27.4511 43.9788 27.6848 43.898 27.8989C43.8658 27.9843 43.8371 28.064 43.8091 28.1416C43.7608 28.2755 43.7147 28.4035 43.6564 28.545C43.4861 28.9585 43.2576 29.3636 42.8043 29.7262C42.3728 30.0715 41.9462 30.1622 41.4925 30.1861C41.3332 30.1945 41.1878 30.1944 41.0322 30.1944C40.947 30.1943 40.8588 30.1943 40.7635 30.1956C40.5139 30.1991 40.2366 30.213 39.9621 30.2816L39.9088 30.2949L39.8597 30.3195C39.6084 30.4451 39.3803 30.5984 39.1737 30.743C39.1229 30.7785 39.0739 30.8132 39.0259 30.8471C38.8707 30.9569 38.7268 31.0587 38.5725 31.1552C38.1865 31.3964 37.7911 31.5667 37.2667 31.5667C36.7695 31.5667 36.3854 31.3653 35.9791 31.0859C35.9102 31.0385 35.8304 30.9813 35.7469 30.9215C35.6131 30.8256 35.4697 30.7227 35.3454 30.642C35.1234 30.4977 34.8662 30.3553 34.5713 30.2816C34.2967 30.213 34.0194 30.1991 33.7698 30.1956C33.6745 30.1943 33.5863 30.1943 33.5011 30.1944C33.3455 30.1944 33.2002 30.1945 33.0409 30.1861C32.5872 30.1622 32.1606 30.0715 31.729 29.7262L31.7028 29.7052L31.6739 29.6879C31.2708 29.4461 31.0533 29.0797 30.8806 28.6354C30.8215 28.4835 30.7744 28.3419 30.7249 28.1932C30.6979 28.1123 30.6703 28.0292 30.6396 27.9412C30.5602 27.7133 30.462 27.4583 30.316 27.2393L30.2886 27.1981L30.2536 27.1631C30.0542 26.9637 29.83 26.8059 29.6239 26.6696C29.5573 26.6256 29.494 26.5847 29.4327 26.545C29.2927 26.4545 29.1635 26.3709 29.0311 26.2739C28.6775 26.0146 28.3813 25.7127 28.2077 25.1919C28.0397 24.6878 28.1156 24.2678 28.2618 23.8289C28.2993 23.7165 28.3404 23.6058 28.3839 23.489L28.3879 23.4783C28.4292 23.3673 28.4731 23.2493 28.5124 23.1315C28.5928 22.8903 28.6667 22.6135 28.6667 22.3167C28.6667 22.0199 28.5928 21.743 28.5124 21.5018C28.4731 21.3841 28.4292 21.266 28.3879 21.1551L28.3839 21.1444C28.3404 21.0276 28.2993 20.9168 28.2618 20.8044C28.1169 20.3696 28.0411 19.9533 28.2031 19.4555C28.3738 19.0379 28.6729 18.7278 29.0478 18.4279C29.1841 18.3188 29.3195 18.2193 29.4615 18.115C29.522 18.0705 29.5836 18.0252 29.6471 17.9779C29.8504 17.8263 30.0642 17.6596 30.2536 17.4702L30.2787 17.4451L30.3 17.4167C30.6119 17.0008 30.7658 16.5217 30.886 16.1476C30.9145 16.059 30.941 15.9764 30.9673 15.9018C31.1126 15.4903 31.276 15.1841 31.6739 14.9454L31.7028 14.9281L31.729 14.9071C32.1606 14.5618 32.5872 14.4711 33.0409 14.4472C33.2002 14.4388 33.3455 14.4389 33.5012 14.439C33.5863 14.439 33.6745 14.4391 33.7698 14.4377C34.0194 14.4342 34.2967 14.4204 34.5713 14.3517L34.6245 14.3384L34.6736 14.3139C34.9249 14.1882 35.153 14.035 35.3596 13.8903C35.4104 13.8548 35.4594 13.8202 35.5073 13.7863C35.6625 13.6765 35.8065 13.5746 35.9608 13.4782C36.3469 13.2369 36.7422 13.0667 37.2667 13.0667C37.7638 13.0667 38.1479 13.2681 38.5542 13.5474C38.6232 13.5948 38.7029 13.652 38.7865 13.7119C38.9202 13.8078 39.0637 13.9106 39.1879 13.9914C39.4099 14.1356 39.6671 14.278 39.9621 14.3517C40.2366 14.4204 40.5139 14.4342 40.7635 14.4377C40.8588 14.4391 40.947 14.439 41.0322 14.439C41.1878 14.4389 41.3332 14.4388 41.4925 14.4472C41.9462 14.4711 42.3728 14.5618 42.8043 14.9071L42.8306 14.9281L42.8594 14.9454C43.2625 15.1873 43.48 15.5537 43.6527 15.9979C43.7118 16.1498 43.759 16.2914 43.8085 16.4401C43.8354 16.5211 43.8631 16.6042 43.8937 16.6921C43.9732 16.9201 44.0713 17.175 44.2173 17.394ZM38.5084 40.6423L37.3826 46.4588L33.711 42.9708L33.4658 42.7379L33.1583 42.8788L28.8236 44.8655L30.7168 34.0743C31.4893 34.356 32.3552 34.5003 33.2158 34.5153C33.8698 34.9348 34.6932 35.3427 35.3437 35.5637C35.6345 35.7013 35.9641 35.7594 36.2735 35.7875C36.5819 35.8156 36.912 35.8166 37.2184 35.8167C38.0423 35.9732 38.7572 35.903 39.4249 35.693L38.5091 40.6383L38.5084 40.6423ZM43.9972 34.1354L44.7708 33.7486L46.284 39.2972L43.2517 38.2358L43.9972 34.1354ZM30.2667 22.5333C30.2667 26.2652 33.2964 29.5333 37.2667 29.5333C41.2369 29.5333 44.2667 26.2652 44.2667 22.5333C44.2667 18.7905 41.0095 15.5333 37.2667 15.5333C33.5239 15.5333 30.2667 18.7905 30.2667 22.5333ZM40.0167 22.3167C40.0167 23.7739 38.7239 25.0667 37.2667 25.0667C35.8095 25.0667 34.5167 23.7739 34.5167 22.3167C34.5167 20.8595 35.8095 19.5667 37.2667 19.5667C38.7239 19.5667 40.0167 20.8595 40.0167 22.3167Z" stroke="white"/>
</svg>
