<svg width="16" height="17" viewBox="0 0 16 17" fill="none" xmlns="http://www.w3.org/2000/svg">
<path d="M6.875 11.7146L4.0625 8.74522L4.85731 7.90625L6.875 10.0354L11.1416 5.53125L11.9375 6.37141L6.875 11.7146Z" fill="#F1C40F"/>
<path d="M8 0.1875C6.44248 0.1875 4.91992 0.67502 3.62489 1.58841C2.32985 2.5018 1.32049 3.80003 0.724452 5.31894C0.128412 6.83785 -0.0275391 8.50922 0.276319 10.1217C0.580178 11.7342 1.3302 13.2153 2.43154 14.3778C3.53288 15.5403 4.93607 16.332 6.46367 16.6528C7.99127 16.9735 9.57467 16.8089 11.0136 16.1797C12.4526 15.5506 13.6825 14.4852 14.5478 13.1182C15.4131 11.7512 15.875 10.1441 15.875 8.5C15.875 6.29539 15.0453 4.18107 13.5685 2.62217C12.0916 1.06328 10.0886 0.1875 8 0.1875ZM8 15.625C6.66498 15.625 5.35994 15.2071 4.2499 14.4242C3.13987 13.6413 2.27471 12.5285 1.76382 11.2266C1.25293 9.9247 1.11925 8.4921 1.3797 7.10998C1.64015 5.72787 2.28303 4.45831 3.22703 3.46186C4.17104 2.46541 5.37377 1.78682 6.68314 1.5119C7.99252 1.23698 9.34972 1.37808 10.5831 1.91736C11.8165 2.45663 12.8707 3.36986 13.6124 4.54156C14.3541 5.71326 14.75 7.09081 14.75 8.5C14.75 10.3897 14.0388 12.2019 12.773 13.5381C11.5071 14.8743 9.79022 15.625 8 15.625Z" fill="#F1C40F"/>
</svg>
