<svg width="44" height="44" viewBox="0 0 44 44" fill="none" xmlns="http://www.w3.org/2000/svg">
<path d="M19.3333 22.0002V22.0003C19.3334 22.7074 19.6144 23.3856 20.1145 23.8855C20.1145 23.8856 20.1146 23.8856 20.1146 23.8856L26.6145 30.3855L26.6145 30.3856L26.6207 30.3916C27.1237 30.8774 27.7973 31.1462 28.4965 31.1401C29.1957 31.134 29.8645 30.8536 30.3589 30.3592C30.8533 29.8647 31.1338 29.1959 31.1399 28.4967C31.1459 27.7975 30.8771 27.1239 30.3914 26.621L30.3914 26.6209L30.3853 26.6148L24.6666 20.8961V11.1668C24.6666 10.4596 24.3856 9.78131 23.8855 9.28121C23.3854 8.78111 22.7072 8.50016 21.9999 8.50016C21.2927 8.50016 20.6144 8.78111 20.1143 9.28121C19.6142 9.78131 19.3333 10.4596 19.3333 11.1668V22.0002ZM21.9999 0.833496C33.6903 0.833496 43.1666 10.3098 43.1666 22.0002C43.1666 33.6905 33.6903 43.1668 21.9999 43.1668C10.3096 43.1668 0.833252 33.6905 0.833252 22.0002C0.833252 10.3098 10.3096 0.833496 21.9999 0.833496Z" stroke="#FEFEFE"/>
</svg>
