<svg width="53" height="52" viewBox="0 0 53 52" fill="none" xmlns="http://www.w3.org/2000/svg">
<g id="company_logo">
<path id="Vector 4" d="M38 34C38 34.5523 38.4477 35 39 35H51.5C52.0523 35 52.5 34.5523 52.5 34V4.47329C52.5 3.57419 51.4059 3.13182 50.781 3.77826L38.281 16.7093C38.1008 16.8958 38 17.145 38 17.4043V34Z" fill="white"/>
<circle id="Ellipse 5" cx="3.5" cy="3.5" r="3.5" transform="matrix(-1 0 0 1 7 45)" fill="white"/>
<path id="Subtract" d="M9.3207 15.8653C9.11623 16.0546 9 16.3206 9 16.5992V51C9 51.5523 9.44772 52 10 52H35.9365C36.4888 52 36.9365 51.5523 36.9365 51V16.5746C36.9365 16.3104 37.041 16.057 37.2272 15.8696L51.3055 1.70494C51.9325 1.07409 51.4856 0 50.5962 0H26.8521C26.6002 0 26.3576 0.0950442 26.1728 0.266139L9.3207 15.8653Z" fill="white"/>
</g>
</svg>
