<svg width="32" height="29" viewBox="0 0 32 29" fill="none" xmlns="http://www.w3.org/2000/svg">
<path d="M29.012 16.1738C30.4183 16.1738 30.7482 15.2527 30.7482 14.4991V12.8244H18.5948C18.5948 14.8508 17.2058 17.8485 13.3861 17.8485C9.56649 17.8485 8.17753 14.8508 8.17753 12.8244V10.1615L4.70512 13.511L2.74959 18.6595L0.26408 20.9865C0.0730971 21.1707 1.97927 22.8727 2.48277 23.3919L7.67403 28.3826C7.86501 28.5668 8.17753 28.8515 8.71575 28.3658L14.4105 22.8727H22.0672C23.4735 22.8727 23.8034 21.9516 23.8034 21.198V19.5233H25.5396C26.9459 19.5233 27.2758 18.6022 27.2758 17.8485V16.1738H29.012Z" fill="#E74C3C"/>
<path d="M28.3002 9.47489L31.2517 6.61111C31.4427 6.42689 31.7378 6.12544 31.2343 5.60627L26.0431 0.615578C25.8521 0.431358 25.5396 0.146654 25.0014 0.632326L21.0428 4.45071H15.1223C11.9451 4.45071 11.6499 7.02979 11.6499 7.80017V12.8244C11.6499 13.578 11.9798 14.4991 13.3861 14.4991C14.7925 14.4991 15.1223 13.578 15.1223 12.8244V9.47489H28.3002Z" fill="#E74C3C"/>
</svg>
