<svg width="245" height="231" viewBox="0 0 245 231" fill="none" xmlns="http://www.w3.org/2000/svg">
<path fill-rule="evenodd" clip-rule="evenodd" d="M44.4146 130.263C45.3426 136.048 48.4433 141.261 53.0838 144.838L146.449 216.798C156.51 224.552 170.953 222.682 178.707 212.621L230.596 145.297C238.35 135.236 236.481 120.794 226.419 113.04L133.296 41.2662C128.511 37.5785 122.468 35.9212 116.471 36.6525L54.7776 44.1761C41.831 45.7549 32.7864 57.7719 34.8522 70.6498L44.4146 130.263ZM162.778 146.706C167.835 140.144 166.615 130.725 160.054 125.668C153.492 120.611 144.073 121.831 139.016 128.392C133.959 134.954 135.178 144.372 141.74 149.43C148.302 154.487 157.72 153.267 162.778 146.706ZM106.194 84.1569C112.756 89.2141 113.976 98.633 108.918 105.195C103.861 111.756 94.4423 112.976 87.8807 107.918C81.3192 102.861 80.0997 93.4423 85.1569 86.8808C90.2141 80.3192 99.6329 79.0997 106.194 84.1569ZM143.037 87.2214L99.6941 143.457L104.446 147.12L147.789 90.8841L143.037 87.2214Z" fill="#F1C40F"/>
</svg>
