<svg width="35" height="35" viewBox="0 0 35 35" fill="none" xmlns="http://www.w3.org/2000/svg">
<path fill-rule="evenodd" clip-rule="evenodd" d="M15.0331 6.47439C14.473 5.90494 13.8056 5.45202 13.0696 5.14176C12.3335 4.83151 11.5433 4.67005 10.7445 4.6667C9.94567 4.66336 9.15412 4.81819 8.41547 5.12227C7.67682 5.42635 7.00569 5.87365 6.44079 6.43839C5.87589 7.00313 5.42839 7.67411 5.12412 8.41265C4.81985 9.15119 4.66483 9.94265 4.66798 10.7414C4.67114 11.5401 4.83242 12.3304 5.14252 13.0665C5.45263 13.8026 5.90541 14.47 6.47476 15.0303C7.61256 16.1499 9.14671 16.7746 10.743 16.7683C12.3394 16.7619 13.8685 16.1251 14.9974 14.9966C16.1263 13.868 16.7635 12.3391 16.7702 10.7428C16.7769 9.14659 16.1526 7.61239 15.0331 6.47439ZM9.98363 8.87434C9.73754 8.98005 9.51496 9.1337 9.3289 9.32634C8.96147 9.70674 8.75817 10.2162 8.76276 10.7451C8.76736 11.2739 8.97949 11.7798 9.35347 12.1537C9.72745 12.5277 10.2334 12.7398 10.7622 12.7444C11.2911 12.749 11.8006 12.5457 12.181 12.1783C12.3737 11.9922 12.5273 11.7697 12.633 11.5236C12.7388 11.2775 12.7944 11.0129 12.7967 10.7451C12.7991 10.4773 12.748 10.2117 12.6466 9.96379C12.5452 9.71591 12.3954 9.49072 12.206 9.30134C12.0166 9.11196 11.7914 8.9622 11.5435 8.86079C11.2956 8.75937 11.03 8.70834 10.7622 8.71067C10.4944 8.713 10.2297 8.76864 9.98363 8.87434Z" fill="#E74C3C"/>
<path fill-rule="evenodd" clip-rule="evenodd" d="M17.1147 0L35 17.8842L17.8853 35L0 17.1138L1.22234 1.22227L17.1147 0ZM13.0696 5.14176C13.8056 5.45202 14.473 5.90494 15.0331 6.47439C16.1526 7.61239 16.7769 9.14659 16.7702 10.7428C16.7635 12.3391 16.1263 13.868 14.9974 14.9966C13.8685 16.1251 12.3394 16.7619 10.743 16.7683C9.14671 16.7746 7.61256 16.1499 6.47476 15.0303C5.90541 14.47 5.45263 13.8026 5.14252 13.0665C4.83242 12.3304 4.67114 11.5401 4.66798 10.7414C4.66483 9.94265 4.81985 9.15119 5.12412 8.41265C5.42839 7.67411 5.87589 7.00313 6.44079 6.43839C7.00569 5.87365 7.67682 5.42635 8.41547 5.12227C9.15412 4.81819 9.94567 4.66336 10.7445 4.6667C11.5433 4.67005 12.3335 4.83151 13.0696 5.14176Z" fill="#E74C3C"/>
</svg>
