<svg width="26" height="20" viewBox="0 0 26 20" fill="none" xmlns="http://www.w3.org/2000/svg">
<path d="M25.5 4.41895V16.2502C25.5001 17.2067 25.1346 18.1271 24.4784 18.823C23.8222 19.519 22.9249 19.9378 21.97 19.9939L21.75 20.0002H4.25C3.29349 20.0002 2.37311 19.6348 1.67717 18.9786C0.981241 18.3224 0.562366 17.4251 0.50625 16.4702L0.5 16.2502V4.41895L12.3062 12.2902L12.4512 12.3727C12.6221 12.4562 12.8098 12.4996 13 12.4996C13.1902 12.4996 13.3779 12.4562 13.5488 12.3727L13.6938 12.2902L25.5 4.41895Z" fill="#F1C40F"/>
<path d="M21.75 0C23.1 0 24.2838 0.7125 24.9438 1.78375L13 9.74625L1.05627 1.78375C1.36976 1.27478 1.80039 0.848126 2.31224 0.539362C2.82409 0.230598 3.40234 0.0486716 3.99877 0.00874996L4.25002 0H21.75Z" fill="#F1C40F"/>
</svg>
