<svg width="23" height="23" viewBox="0 0 23 23" fill="none" xmlns="http://www.w3.org/2000/svg">
<path d="M0.559374 0.60911C0.918006 0.251677 1.40415 0.0509109 1.91101 0.0509109C2.41788 0.0509109 2.90402 0.251677 3.26265 0.60911L11.4745 8.80369L19.6863 0.60911C19.9201 0.357865 20.2175 0.174196 20.5471 0.0774539C20.8767 -0.0192884 21.2264 -0.0255218 21.5593 0.0594097C21.8921 0.144341 22.1959 0.317293 22.4385 0.560044C22.6811 0.802795 22.8537 1.10636 22.9379 1.43875C23.0229 1.77055 23.0168 2.11906 22.9203 2.44771C22.8238 2.77637 22.6405 3.07307 22.3896 3.3067L14.1778 11.5013L22.3896 19.6959C22.6414 19.9292 22.8254 20.2259 22.9224 20.5548C23.0193 20.8838 23.0256 21.2327 22.9405 21.5648C22.8554 21.897 22.682 22.2001 22.4388 22.4423C22.1955 22.6844 21.8913 22.8565 21.5582 22.9406C21.2257 23.0254 20.8765 23.0193 20.5471 22.923C20.2178 22.8268 19.9205 22.6438 19.6863 22.3935L11.4745 14.1989L3.26265 22.3935C2.90014 22.731 2.42044 22.9149 1.92469 22.9064C1.42894 22.8978 0.955888 22.6975 0.605279 22.3476C0.254687 21.9978 0.0539465 21.5257 0.0453827 21.031C0.0368189 20.5363 0.221102 20.0576 0.559374 19.6959L8.77122 11.5013L0.559374 3.3067C0.201189 2.94883 0 2.46371 0 1.95791C0 1.45211 0.201189 0.966987 0.559374 0.60911Z" fill="#E74C3C"/>
</svg>
