<svg width="50" height="40" viewBox="0 0 50 40" fill="none" xmlns="http://www.w3.org/2000/svg">
<mask id="path-1-inside-1_20_187" fill="white">
<path d="M24.2573 10.1772C24.8223 9.67353 25.0451 8.88206 24.7507 8.17853C24.5677 7.75481 24.3687 7.33909 24.1459 6.93936L23.8993 6.50765C23.6605 6.10791 23.3979 5.71618 23.1194 5.34043C22.6658 4.73283 21.8701 4.53297 21.1539 4.77281L18.9099 5.51631C18.0584 4.81278 17.0796 4.23717 16.0292 3.84543L15.5438 1.52698C15.3926 0.783476 14.8197 0.191872 14.0717 0.103931C13.5465 0.0319786 13.0133 0 12.4722 0H12.4165C11.8754 0 11.3422 0.0319786 10.817 0.0959358C10.069 0.183877 9.49609 0.783476 9.3449 1.51898L8.85949 3.84543C7.80113 4.24516 6.83031 4.81278 5.97886 5.51631L3.72687 4.7808C3.01069 4.54096 2.21494 4.74083 1.76136 5.34842C1.48284 5.72417 1.22024 6.11591 0.973558 6.51564L0.734832 6.93936C0.51202 7.33909 0.313082 7.75481 0.130058 8.18652C-0.164371 8.88206 0.0584402 9.67353 0.623426 10.1852L2.39 11.7681C2.30247 12.3038 2.25472 12.8634 2.25472 13.431C2.25472 13.9986 2.30247 14.5583 2.39 15.1019L0.623426 16.6848C0.0584402 17.1885 -0.164371 17.98 0.130058 18.6835C0.313082 19.1072 0.51202 19.5229 0.734832 19.9307L0.973558 20.3464C1.21228 20.7541 1.47488 21.1379 1.76136 21.5136C2.21494 22.1212 3.01069 22.3211 3.72687 22.0812L5.9709 21.3377C6.82235 22.0413 7.80113 22.6169 8.85153 23.0086L9.33694 25.3351C9.48813 26.0786 10.0611 26.6702 10.8091 26.7581C11.3422 26.8221 11.8834 26.854 12.4324 26.854C13.256 26.854 13.5226 26.8221 14.0558 26.7581C14.8038 26.6702 15.3767 26.0706 15.5279 25.3351L16.0133 23.0086C17.0717 22.6089 18.0425 22.0413 18.894 21.3377L21.138 22.0812C21.8542 22.3211 22.6499 22.1212 23.1035 21.5136C23.382 21.1379 23.6446 20.7541 23.8833 20.3464L24.13 19.9147C24.3528 19.5149 24.5518 19.0992 24.7348 18.6755C25.0292 17.98 24.8064 17.1885 24.2414 16.6768L22.4748 15.0939C22.5624 14.5503 22.6101 13.9906 22.6101 13.423C22.6101 12.8554 22.5624 12.2958 22.4748 11.7521L24.2414 10.1692L24.2573 10.1772ZM8.62076 13.431C8.62076 12.4133 9.02318 11.4372 9.7395 10.7175C10.4558 9.99788 11.4274 9.59358 12.4404 9.59358C13.4534 9.59358 14.4249 9.99788 15.1413 10.7175C15.8576 11.4372 16.26 12.4133 16.26 13.431C16.26 14.4488 15.8576 15.4248 15.1413 16.1445C14.4249 16.8642 13.4534 17.2684 12.4404 17.2684C11.4274 17.2684 10.4558 16.8642 9.7395 16.1445C9.02318 15.4248 8.62076 14.4488 8.62076 13.431ZM39.87 39.3737C40.3714 39.9413 41.1592 40.1651 41.8594 39.8693C42.2812 39.6855 42.695 39.4856 43.0929 39.2617L43.5226 39.0139C43.9204 38.7741 44.3104 38.5102 44.6844 38.2304C45.2891 37.7747 45.4881 36.9753 45.2493 36.2558L44.5093 34.0013C45.2096 33.1458 45.7825 32.1625 46.1724 31.1072L48.4881 30.6195C49.2281 30.4676 49.817 29.892 49.9045 29.1405C49.9682 28.6049 50 28.0612 50 27.5096C50 26.6822 49.9682 26.4143 49.9045 25.8787C49.817 25.1272 49.2202 24.5516 48.4881 24.3997L46.1724 23.904C45.7745 22.8407 45.2096 21.8654 44.5093 21.0099L45.2493 18.7555C45.4881 18.0359 45.2891 17.2365 44.6844 16.7808C44.3104 16.501 43.9204 16.2371 43.5226 15.9893L43.1008 15.7495C42.7029 15.5256 42.2891 15.3257 41.8594 15.1419C41.1671 14.8461 40.3793 15.0699 39.87 15.6375L38.2945 17.4124C37.7533 17.3244 37.1963 17.2764 36.6313 17.2764C36.0663 17.2764 35.5093 17.3244 34.9682 17.4124L33.3926 15.6375C32.8913 15.0699 32.1035 14.8461 31.4032 15.1419C30.9815 15.3257 30.5677 15.5256 30.1618 15.7495L29.748 15.9893C29.3422 16.2291 28.9603 16.493 28.5862 16.7808C27.9815 17.2365 27.7825 18.0359 28.0213 18.7555L28.7613 21.0099C28.061 21.8654 27.4881 22.8487 27.0982 23.904L24.7825 24.3837C24.0425 24.5356 23.4536 25.1112 23.3661 25.8627C23.3024 26.3983 23.2706 26.942 23.2706 27.4936C23.2706 28.3211 23.3024 28.5889 23.3661 29.1245C23.4536 29.876 24.0504 30.4516 24.7825 30.6035L27.0982 31.0912C27.4961 32.1545 28.061 33.1298 28.7613 33.9853L28.0213 36.2398C27.7825 36.9593 27.9815 37.7587 28.5862 38.2144C28.9603 38.4943 29.3422 38.7581 29.748 38.9979L30.1778 39.2458C30.5756 39.4696 30.9894 39.6695 31.4112 39.8533C32.1035 40.1491 32.8913 39.9253 33.4006 39.3577L34.9762 37.5829C35.5173 37.6708 36.0743 37.7188 36.6393 37.7188C37.2043 37.7188 37.7613 37.6708 38.3024 37.5829L39.878 39.3577L39.87 39.3737ZM36.6313 23.6642C37.1329 23.6642 37.6296 23.7634 38.093 23.9563C38.5564 24.1491 38.9775 24.4318 39.3322 24.7881C39.6869 25.1445 39.9682 25.5675 40.1602 26.0331C40.3521 26.4987 40.4509 26.9977 40.4509 27.5016C40.4509 28.0055 40.3521 28.5046 40.1602 28.9701C39.9682 29.4357 39.6869 29.8587 39.3322 30.2151C38.9775 30.5714 38.5564 30.8541 38.093 31.0469C37.6296 31.2398 37.1329 31.339 36.6313 31.339C36.1297 31.339 35.633 31.2398 35.1696 31.0469C34.7062 30.8541 34.2851 30.5714 33.9304 30.2151C33.5758 29.8587 33.2944 29.4357 33.1025 28.9701C32.9105 28.5046 32.8117 28.0055 32.8117 27.5016C32.8117 26.9977 32.9105 26.4987 33.1025 26.0331C33.2944 25.5675 33.5758 25.1445 33.9304 24.7881C34.2851 24.4318 34.7062 24.1491 35.1696 23.9563C35.633 23.7634 36.1297 23.6642 36.6313 23.6642Z"/>
</mask>
<path d="M24.2573 10.1772C24.8223 9.67353 25.0451 8.88206 24.7507 8.17853C24.5677 7.75481 24.3687 7.33909 24.1459 6.93936L23.8993 6.50765C23.6605 6.10791 23.3979 5.71618 23.1194 5.34043C22.6658 4.73283 21.8701 4.53297 21.1539 4.77281L18.9099 5.51631C18.0584 4.81278 17.0796 4.23717 16.0292 3.84543L15.5438 1.52698C15.3926 0.783476 14.8197 0.191872 14.0717 0.103931C13.5465 0.0319786 13.0133 0 12.4722 0H12.4165C11.8754 0 11.3422 0.0319786 10.817 0.0959358C10.069 0.183877 9.49609 0.783476 9.3449 1.51898L8.85949 3.84543C7.80113 4.24516 6.83031 4.81278 5.97886 5.51631L3.72687 4.7808C3.01069 4.54096 2.21494 4.74083 1.76136 5.34842C1.48284 5.72417 1.22024 6.11591 0.973558 6.51564L0.734832 6.93936C0.51202 7.33909 0.313082 7.75481 0.130058 8.18652C-0.164371 8.88206 0.0584402 9.67353 0.623426 10.1852L2.39 11.7681C2.30247 12.3038 2.25472 12.8634 2.25472 13.431C2.25472 13.9986 2.30247 14.5583 2.39 15.1019L0.623426 16.6848C0.0584402 17.1885 -0.164371 17.98 0.130058 18.6835C0.313082 19.1072 0.51202 19.5229 0.734832 19.9307L0.973558 20.3464C1.21228 20.7541 1.47488 21.1379 1.76136 21.5136C2.21494 22.1212 3.01069 22.3211 3.72687 22.0812L5.9709 21.3377C6.82235 22.0413 7.80113 22.6169 8.85153 23.0086L9.33694 25.3351C9.48813 26.0786 10.0611 26.6702 10.8091 26.7581C11.3422 26.8221 11.8834 26.854 12.4324 26.854C13.256 26.854 13.5226 26.8221 14.0558 26.7581C14.8038 26.6702 15.3767 26.0706 15.5279 25.3351L16.0133 23.0086C17.0717 22.6089 18.0425 22.0413 18.894 21.3377L21.138 22.0812C21.8542 22.3211 22.6499 22.1212 23.1035 21.5136C23.382 21.1379 23.6446 20.7541 23.8833 20.3464L24.13 19.9147C24.3528 19.5149 24.5518 19.0992 24.7348 18.6755C25.0292 17.98 24.8064 17.1885 24.2414 16.6768L22.4748 15.0939C22.5624 14.5503 22.6101 13.9906 22.6101 13.423C22.6101 12.8554 22.5624 12.2958 22.4748 11.7521L24.2414 10.1692L24.2573 10.1772ZM8.62076 13.431C8.62076 12.4133 9.02318 11.4372 9.7395 10.7175C10.4558 9.99788 11.4274 9.59358 12.4404 9.59358C13.4534 9.59358 14.4249 9.99788 15.1413 10.7175C15.8576 11.4372 16.26 12.4133 16.26 13.431C16.26 14.4488 15.8576 15.4248 15.1413 16.1445C14.4249 16.8642 13.4534 17.2684 12.4404 17.2684C11.4274 17.2684 10.4558 16.8642 9.7395 16.1445C9.02318 15.4248 8.62076 14.4488 8.62076 13.431ZM39.87 39.3737C40.3714 39.9413 41.1592 40.1651 41.8594 39.8693C42.2812 39.6855 42.695 39.4856 43.0929 39.2617L43.5226 39.0139C43.9204 38.7741 44.3104 38.5102 44.6844 38.2304C45.2891 37.7747 45.4881 36.9753 45.2493 36.2558L44.5093 34.0013C45.2096 33.1458 45.7825 32.1625 46.1724 31.1072L48.4881 30.6195C49.2281 30.4676 49.817 29.892 49.9045 29.1405C49.9682 28.6049 50 28.0612 50 27.5096C50 26.6822 49.9682 26.4143 49.9045 25.8787C49.817 25.1272 49.2202 24.5516 48.4881 24.3997L46.1724 23.904C45.7745 22.8407 45.2096 21.8654 44.5093 21.0099L45.2493 18.7555C45.4881 18.0359 45.2891 17.2365 44.6844 16.7808C44.3104 16.501 43.9204 16.2371 43.5226 15.9893L43.1008 15.7495C42.7029 15.5256 42.2891 15.3257 41.8594 15.1419C41.1671 14.8461 40.3793 15.0699 39.87 15.6375L38.2945 17.4124C37.7533 17.3244 37.1963 17.2764 36.6313 17.2764C36.0663 17.2764 35.5093 17.3244 34.9682 17.4124L33.3926 15.6375C32.8913 15.0699 32.1035 14.8461 31.4032 15.1419C30.9815 15.3257 30.5677 15.5256 30.1618 15.7495L29.748 15.9893C29.3422 16.2291 28.9603 16.493 28.5862 16.7808C27.9815 17.2365 27.7825 18.0359 28.0213 18.7555L28.7613 21.0099C28.061 21.8654 27.4881 22.8487 27.0982 23.904L24.7825 24.3837C24.0425 24.5356 23.4536 25.1112 23.3661 25.8627C23.3024 26.3983 23.2706 26.942 23.2706 27.4936C23.2706 28.3211 23.3024 28.5889 23.3661 29.1245C23.4536 29.876 24.0504 30.4516 24.7825 30.6035L27.0982 31.0912C27.4961 32.1545 28.061 33.1298 28.7613 33.9853L28.0213 36.2398C27.7825 36.9593 27.9815 37.7587 28.5862 38.2144C28.9603 38.4943 29.3422 38.7581 29.748 38.9979L30.1778 39.2458C30.5756 39.4696 30.9894 39.6695 31.4112 39.8533C32.1035 40.1491 32.8913 39.9253 33.4006 39.3577L34.9762 37.5829C35.5173 37.6708 36.0743 37.7188 36.6393 37.7188C37.2043 37.7188 37.7613 37.6708 38.3024 37.5829L39.878 39.3577L39.87 39.3737ZM36.6313 23.6642C37.1329 23.6642 37.6296 23.7634 38.093 23.9563C38.5564 24.1491 38.9775 24.4318 39.3322 24.7881C39.6869 25.1445 39.9682 25.5675 40.1602 26.0331C40.3521 26.4987 40.4509 26.9977 40.4509 27.5016C40.4509 28.0055 40.3521 28.5046 40.1602 28.9701C39.9682 29.4357 39.6869 29.8587 39.3322 30.2151C38.9775 30.5714 38.5564 30.8541 38.093 31.0469C37.6296 31.2398 37.1329 31.339 36.6313 31.339C36.1297 31.339 35.633 31.2398 35.1696 31.0469C34.7062 30.8541 34.2851 30.5714 33.9304 30.2151C33.5758 29.8587 33.2944 29.4357 33.1025 28.9701C32.9105 28.5046 32.8117 28.0055 32.8117 27.5016C32.8117 26.9977 32.9105 26.4987 33.1025 26.0331C33.2944 25.5675 33.5758 25.1445 33.9304 24.7881C34.2851 24.4318 34.7062 24.1491 35.1696 23.9563C35.633 23.7634 36.1297 23.6642 36.6313 23.6642Z" stroke="white" stroke-width="2" mask="url(#path-1-inside-1_20_187)"/>
</svg>
