<svg width="79" height="60" viewBox="0 0 79 60" fill="none" xmlns="http://www.w3.org/2000/svg">
<path d="M38.5625 15.8555C39.45 15.1172 39.8 13.957 39.3375 12.9258C39.05 12.3047 38.7375 11.6953 38.3875 11.1094L38 10.4766C37.625 9.89062 37.2125 9.31641 36.775 8.76563C36.0625 7.875 34.8125 7.58203 33.6875 7.93359L30.1625 9.02344C28.825 7.99219 27.2875 7.14844 25.6375 6.57422L24.875 3.17578C24.6375 2.08594 23.7375 1.21875 22.5625 1.08984C21.7375 0.984375 20.9 0.9375 20.05 0.9375H19.9625C19.1125 0.9375 18.275 0.984375 17.45 1.07812C16.275 1.20703 15.375 2.08594 15.1375 3.16406L14.375 6.57422C12.7125 7.16016 11.1875 7.99219 9.84999 9.02344L6.31249 7.94531C5.18749 7.59375 3.93749 7.88672 3.22499 8.77734C2.78749 9.32812 2.37499 9.90234 1.98749 10.4883L1.61249 11.1094C1.26249 11.6953 0.949991 12.3047 0.662491 12.9375C0.199991 13.957 0.549991 15.1172 1.43749 15.8672L4.21249 18.1875C4.07499 18.9727 3.99999 19.793 3.99999 20.625C3.99999 21.457 4.07499 22.2773 4.21249 23.0742L1.43749 25.3945C0.549991 26.1328 0.199991 27.293 0.662491 28.3242C0.949991 28.9453 1.26249 29.5547 1.61249 30.1523L1.98749 30.7617C2.36249 31.3594 2.77499 31.9219 3.22499 32.4727C3.93749 33.3633 5.18749 33.6562 6.31249 33.3047L9.83749 32.2148C11.175 33.2461 12.7125 34.0898 14.3625 34.6641L15.125 38.0742C15.3625 39.1641 16.2625 40.0312 17.4375 40.1602C18.275 40.2539 19.125 40.3008 19.9875 40.3008C21.2812 40.3008 21.7 40.2539 22.5375 40.1602C23.7125 40.0312 24.6125 39.1523 24.85 38.0742L25.6125 34.6641C27.275 34.0781 28.8 33.2461 30.1375 32.2148L33.6625 33.3047C34.7875 33.6562 36.0375 33.3633 36.75 32.4727C37.1875 31.9219 37.6 31.3594 37.975 30.7617L38.3625 30.1289C38.7125 29.543 39.025 28.9336 39.3125 28.3125C39.775 27.293 39.425 26.1328 38.5375 25.3828L35.7625 23.0625C35.9 22.2656 35.975 21.4453 35.975 20.6133C35.975 19.7812 35.9 18.9609 35.7625 18.1641L38.5375 15.8438L38.5625 15.8555ZM14 20.625C14 19.1332 14.6321 17.7024 15.7574 16.6475C16.8826 15.5926 18.4087 15 20 15C21.5913 15 23.1174 15.5926 24.2426 16.6475C25.3678 17.7024 26 19.1332 26 20.625C26 22.1168 25.3678 23.5476 24.2426 24.6025C23.1174 25.6574 21.5913 26.25 20 26.25C18.4087 26.25 16.8826 25.6574 15.7574 24.6025C14.6321 23.5476 14 22.1168 14 20.625ZM63.0875 58.6523C63.875 59.4844 65.1125 59.8125 66.2125 59.3789C66.875 59.1094 67.525 58.8164 68.15 58.4883L68.825 58.125C69.45 57.7734 70.0625 57.3867 70.65 56.9766C71.6 56.3086 71.9125 55.1367 71.5375 54.082L70.375 50.7773C71.475 49.5234 72.375 48.082 72.9875 46.5352L76.625 45.8203C77.7875 45.5977 78.7125 44.7539 78.85 43.6523C78.95 42.8672 79 42.0703 79 41.2617C79 40.0488 78.95 39.6562 78.85 38.8711C78.7125 37.7695 77.775 36.9258 76.625 36.7031L72.9875 35.9766C72.3625 34.418 71.475 32.9883 70.375 31.7344L71.5375 28.4297C71.9125 27.375 71.6 26.2031 70.65 25.5352C70.0625 25.125 69.45 24.7383 68.825 24.375L68.1625 24.0234C67.5375 23.6953 66.8875 23.4023 66.2125 23.1328C65.125 22.6992 63.8875 23.0273 63.0875 23.8594L60.6125 26.4609C59.7625 26.332 58.8875 26.2617 58 26.2617C57.1125 26.2617 56.2375 26.332 55.3875 26.4609L52.9125 23.8594C52.125 23.0273 50.8875 22.6992 49.7875 23.1328C49.125 23.4023 48.475 23.6953 47.8375 24.0234L47.1875 24.375C46.55 24.7266 45.95 25.1133 45.3625 25.5352C44.4125 26.2031 44.1 27.375 44.475 28.4297L45.6375 31.7344C44.5375 32.9883 43.6375 34.4297 43.025 35.9766L39.3875 36.6797C38.225 36.9023 37.3 37.7461 37.1625 38.8477C37.0625 39.6328 37.0125 40.4297 37.0125 41.2383C37.0125 42.4512 37.0625 42.8438 37.1625 43.6289C37.3 44.7305 38.2375 45.5742 39.3875 45.7969L43.025 46.5117C43.65 48.0703 44.5375 49.5 45.6375 50.7539L44.475 54.0586C44.1 55.1133 44.4125 56.2852 45.3625 56.9531C45.95 57.3633 46.55 57.75 47.1875 58.1016L47.8625 58.4648C48.4875 58.793 49.1375 59.0859 49.8 59.3555C50.8875 59.7891 52.125 59.4609 52.925 58.6289L55.4 56.0273C56.25 56.1562 57.125 56.2266 58.0125 56.2266C58.9 56.2266 59.775 56.1562 60.625 56.0273L63.1 58.6289L63.0875 58.6523ZM58 35.625C58.7879 35.625 59.5681 35.7705 60.2961 36.0532C61.024 36.3359 61.6855 36.7502 62.2426 37.2725C62.7998 37.7949 63.2417 38.4149 63.5433 39.0974C63.8448 39.7799 64 40.5113 64 41.25C64 41.9887 63.8448 42.7201 63.5433 43.4026C63.2417 44.0851 62.7998 44.7051 62.2426 45.2275C61.6855 45.7498 61.024 46.1641 60.2961 46.4468C59.5681 46.7295 58.7879 46.875 58 46.875C57.2121 46.875 56.4318 46.7295 55.7039 46.4468C54.9759 46.1641 54.3145 45.7498 53.7574 45.2275C53.2002 44.7051 52.7582 44.0851 52.4567 43.4026C52.1552 42.7201 52 41.9887 52 41.25C52 40.5113 52.1552 39.7799 52.4567 39.0974C52.7582 38.4149 53.2002 37.7949 53.7574 37.2725C54.3145 36.7502 54.9759 36.3359 55.7039 36.0532C56.4318 35.7705 57.2121 35.625 58 35.625Z" fill="#F1C40F"/>
</svg>
