<svg width="23" height="24" viewBox="0 0 23 24" fill="none" xmlns="http://www.w3.org/2000/svg">
<path d="M12 5.21698C11.3083 5.21698 10.6449 4.94221 10.1558 4.45311C9.66675 3.96402 9.39198 3.30066 9.39198 2.60898C9.39198 1.91729 9.66675 1.25394 10.1558 0.764842C10.6449 0.275747 11.3083 0.000976563 12 0.000976562C12.6917 0.000976563 13.355 0.275747 13.8441 0.764842C14.3332 1.25394 14.608 1.91729 14.608 2.60898C14.608 3.30066 14.3332 3.96402 13.8441 4.45311C13.355 4.94221 12.6917 5.21698 12 5.21698ZM20.609 5.21698C19.9173 5.21698 19.2539 4.94221 18.7648 4.45311C18.2757 3.96402 18.001 3.30066 18.001 2.60898C18.001 1.91729 18.2757 1.25394 18.7648 0.764842C19.2539 0.275747 19.9173 0.000976563 20.609 0.000976562C21.3007 0.000976563 21.964 0.275747 22.4531 0.764842C22.9422 1.25394 23.217 1.91729 23.217 2.60898C23.217 3.30066 22.9422 3.96402 22.4531 4.45311C21.964 4.94221 21.3007 5.21698 20.609 5.21698ZM2.60898 5.21698C1.91729 5.21698 1.25394 4.94221 0.764842 4.45311C0.275747 3.96402 0.00097664 3.30066 0.00097664 2.60898C0.00097664 1.91729 0.275747 1.25394 0.764842 0.764842C1.25394 0.275747 1.91729 0.000976563 2.60898 0.000976562C3.30066 0.000976563 3.96402 0.275747 4.45311 0.764842C4.94221 1.25394 5.21698 1.91729 5.21698 2.60898C5.21698 3.30066 4.94221 3.96402 4.45311 4.45311C3.96402 4.94221 3.30066 5.21698 2.60898 5.21698ZM12 14.608C11.6575 14.608 11.3184 14.5405 11.0019 14.4095C10.6855 14.2784 10.398 14.0863 10.1558 13.8441C9.91367 13.6019 9.72156 13.3144 9.5905 12.998C9.45943 12.6816 9.39198 12.3425 9.39198 12C9.39198 11.6575 9.45943 11.3184 9.5905 11.0019C9.72156 10.6855 9.91367 10.398 10.1558 10.1558C10.398 9.91367 10.6855 9.72156 11.0019 9.5905C11.3184 9.45943 11.6575 9.39198 12 9.39198C12.6917 9.39198 13.355 9.66675 13.8441 10.1558C14.3332 10.6449 14.608 11.3083 14.608 12C14.608 12.6917 14.3332 13.355 13.8441 13.8441C13.355 14.3332 12.6917 14.608 12 14.608ZM20.609 14.608C20.2665 14.608 19.9274 14.5405 19.6109 14.4095C19.2945 14.2784 19.007 14.0863 18.7648 13.8441C18.5227 13.6019 18.3306 13.3144 18.1995 12.998C18.0684 12.6816 18.001 12.3425 18.001 12C18.001 11.6575 18.0684 11.3184 18.1995 11.0019C18.3306 10.6855 18.5227 10.398 18.7648 10.1558C19.007 9.91367 19.2945 9.72156 19.6109 9.5905C19.9274 9.45943 20.2665 9.39198 20.609 9.39198C21.3007 9.39198 21.964 9.66675 22.4531 10.1558C22.9422 10.6449 23.217 11.3083 23.217 12C23.217 12.6917 22.9422 13.355 22.4531 13.8441C21.964 14.3332 21.3007 14.608 20.609 14.608ZM2.60898 14.608C2.26649 14.608 1.92736 14.5405 1.61094 14.4095C1.29452 14.2784 1.00702 14.0863 0.764842 13.8441C0.522667 13.6019 0.330563 13.3144 0.199499 12.998C0.0684345 12.6816 0.000976585 12.3425 0.000976585 12C0.000976585 11.6575 0.0684345 11.3184 0.199499 11.0019C0.330563 10.6855 0.522667 10.398 0.764842 10.1558C1.00702 9.91367 1.29452 9.72156 1.61094 9.5905C1.92736 9.45943 2.26649 9.39198 2.60898 9.39198C3.30066 9.39198 3.96402 9.66675 4.45311 10.1558C4.94221 10.6449 5.21698 11.3083 5.21698 12C5.21698 12.6917 4.94221 13.355 4.45311 13.8441C3.96402 14.3332 3.30066 14.608 2.60898 14.608ZM12 23.999C11.6575 23.999 11.3184 23.9315 11.0019 23.8005C10.6855 23.6694 10.398 23.4773 10.1558 23.2351C9.91367 22.9929 9.72156 22.7054 9.5905 22.389C9.45943 22.0726 9.39198 21.7335 9.39198 21.391C9.39198 21.0485 9.45943 20.7094 9.5905 20.3929C9.72156 20.0765 9.91367 19.789 10.1558 19.5468C10.398 19.3047 10.6855 19.1126 11.0019 18.9815C11.3184 18.8504 11.6575 18.783 12 18.783C12.6918 18.783 13.3553 19.0578 13.8445 19.547C14.3337 20.0362 14.6085 20.6997 14.6085 21.3915C14.6085 22.0833 14.3337 22.7468 13.8445 23.236C13.3553 23.7252 12.6918 23.999 12 23.999ZM20.609 23.999C20.2665 23.999 19.9274 23.9315 19.6109 23.8005C19.2945 23.6694 19.007 23.4773 18.7648 23.2351C18.5227 22.9929 18.3306 22.7054 18.1995 22.389C18.0684 22.0726 18.001 21.7335 18.001 21.391C18.001 21.0485 18.0684 20.7094 18.1995 20.3929C18.3306 20.0765 18.5227 19.789 18.7648 19.5468C19.007 19.3047 19.2945 19.1126 19.6109 18.9815C19.9274 18.8504 20.2665 18.783 20.609 18.783C21.3007 18.783 21.964 19.0577 22.4531 19.5468C22.9422 20.0359 23.217 20.6993 23.217 21.391C23.217 22.0827 22.9422 22.746 22.4531 23.2351C21.964 23.7242 21.3007 23.999 20.609 23.999ZM2.60898 23.999C2.26649 23.999 1.92736 23.9315 1.61094 23.8005C1.29452 23.6694 1.00702 23.4773 0.764842 23.2351C0.522667 22.9929 0.330563 22.7054 0.199499 22.389C0.0684345 22.0726 0.000976563 21.7335 0.000976562 21.391C0.000976563 21.0485 0.0684345 20.7094 0.199499 20.3929C0.330563 20.0765 0.522667 19.789 0.764842 19.5468C1.00702 19.3047 1.29452 19.1126 1.61094 18.9815C1.92736 18.8504 2.26649 18.783 2.60898 18.783C3.30066 18.783 3.96402 19.0577 4.45311 19.5468C4.94221 20.0359 5.21698 20.6993 5.21698 21.391C5.21698 22.0827 4.94221 22.746 4.45311 23.2351C3.96402 23.7242 3.30066 23.999 2.60898 23.999Z" fill="#E74C3C"/>
</svg>
