<svg width="23" height="23" viewBox="0 0 23 23" fill="none" xmlns="http://www.w3.org/2000/svg">
<g clip-path="url(#clip0_355_523)">
<path d="M12 4.99964C11.3083 4.99964 10.6449 4.73632 10.1558 4.26761C9.66675 3.79889 9.39198 3.16317 9.39198 2.50031C9.39198 1.83745 9.66675 1.20173 10.1558 0.733014C10.6449 0.264298 11.3083 0.000976563 12 0.000976562C12.6917 0.000976563 13.355 0.264298 13.8441 0.733014C14.3332 1.20173 14.608 1.83745 14.608 2.50031C14.608 3.16317 14.3332 3.79889 13.8441 4.26761C13.355 4.73632 12.6917 4.99964 12 4.99964ZM20.609 4.99964C19.9173 4.99964 19.2539 4.73632 18.7648 4.26761C18.2757 3.79889 18.001 3.16317 18.001 2.50031C18.001 1.83745 18.2757 1.20173 18.7648 0.733014C19.2539 0.264298 19.9173 0.000976563 20.609 0.000976562C21.3007 0.000976563 21.964 0.264298 22.4531 0.733014C22.9422 1.20173 23.217 1.83745 23.217 2.50031C23.217 3.16317 22.9422 3.79889 22.4531 4.26761C21.964 4.73632 21.3007 4.99964 20.609 4.99964ZM2.60898 4.99964C1.91729 4.99964 1.25394 4.73632 0.764842 4.26761C0.275747 3.79889 0.00097664 3.16317 0.00097664 2.50031C0.00097664 1.83745 0.275747 1.20173 0.764842 0.733014C1.25394 0.264298 1.91729 0.000976563 2.60898 0.000976562C3.30066 0.000976563 3.96402 0.264298 4.45311 0.733014C4.94221 1.20173 5.21698 1.83745 5.21698 2.50031C5.21698 3.16317 4.94221 3.79889 4.45311 4.26761C3.96402 4.73632 3.30066 4.99964 2.60898 4.99964ZM12 13.9994C11.6575 13.9994 11.3184 13.9347 11.0019 13.8091C10.6855 13.6835 10.398 13.4994 10.1558 13.2673C9.91367 13.0352 9.72156 12.7597 9.5905 12.4565C9.45943 12.1532 9.39198 11.8282 9.39198 11.5C9.39198 11.1718 9.45943 10.8468 9.5905 10.5436C9.72156 10.2403 9.91367 9.96481 10.1558 9.73272C10.398 9.50064 10.6855 9.31654 11.0019 9.19093C11.3184 9.06533 11.6575 9.00069 12 9.00069C12.6917 9.00069 13.355 9.26401 13.8441 9.73272C14.3332 10.2014 14.608 10.8372 14.608 11.5C14.608 12.1629 14.3332 12.7986 13.8441 13.2673C13.355 13.736 12.6917 13.9994 12 13.9994ZM20.609 13.9994C20.2665 13.9994 19.9274 13.9347 19.6109 13.8091C19.2945 13.6835 19.007 13.4994 18.7648 13.2673C18.5227 13.0352 18.3306 12.7597 18.1995 12.4565C18.0684 12.1532 18.001 11.8282 18.001 11.5C18.001 11.1718 18.0684 10.8468 18.1995 10.5436C18.3306 10.2403 18.5227 9.96481 18.7648 9.73272C19.007 9.50064 19.2945 9.31654 19.6109 9.19093C19.9274 9.06533 20.2665 9.00069 20.609 9.00069C21.3007 9.00069 21.964 9.26401 22.4531 9.73272C22.9422 10.2014 23.217 10.8372 23.217 11.5C23.217 12.1629 22.9422 12.7986 22.4531 13.2673C21.964 13.736 21.3007 13.9994 20.609 13.9994ZM2.60898 13.9994C2.26649 13.9994 1.92736 13.9347 1.61094 13.8091C1.29452 13.6835 1.00702 13.4994 0.764842 13.2673C0.522667 13.0352 0.330563 12.7597 0.199499 12.4565C0.0684345 12.1532 0.000976585 11.8282 0.000976585 11.5C0.000976585 11.1718 0.0684345 10.8468 0.199499 10.5436C0.330563 10.2403 0.522667 9.96481 0.764842 9.73272C1.00702 9.50064 1.29452 9.31654 1.61094 9.19093C1.92736 9.06533 2.26649 9.00069 2.60898 9.00069C3.30066 9.00069 3.96402 9.26401 4.45311 9.73272C4.94221 10.2014 5.21698 10.8372 5.21698 11.5C5.21698 12.1629 4.94221 12.7986 4.45311 13.2673C3.96402 13.736 3.30066 13.9994 2.60898 13.9994ZM12 22.9991C11.6575 22.9991 11.3184 22.9344 11.0019 22.8088C10.6855 22.6832 10.398 22.4991 10.1558 22.267C9.91367 22.0349 9.72156 21.7594 9.5905 21.4562C9.45943 21.1529 9.39198 20.8279 9.39198 20.4997C9.39198 20.1715 9.45943 19.8465 9.5905 19.5433C9.72156 19.24 9.91367 18.9645 10.1558 18.7324C10.398 18.5003 10.6855 18.3162 11.0019 18.1906C11.3184 18.065 11.6575 18.0004 12 18.0004C12.6918 18.0004 13.3553 18.2638 13.8445 18.7326C14.3337 19.2014 14.6085 19.8372 14.6085 20.5002C14.6085 21.1632 14.3337 21.799 13.8445 22.2678C13.3553 22.7366 12.6918 22.9991 12 22.9991ZM20.609 22.9991C20.2665 22.9991 19.9274 22.9344 19.6109 22.8088C19.2945 22.6832 19.007 22.4991 18.7648 22.267C18.5227 22.0349 18.3306 21.7594 18.1995 21.4562C18.0684 21.1529 18.001 20.8279 18.001 20.4997C18.001 20.1715 18.0684 19.8465 18.1995 19.5433C18.3306 19.24 18.5227 18.9645 18.7648 18.7324C19.007 18.5003 19.2945 18.3162 19.6109 18.1906C19.9274 18.065 20.2665 18.0004 20.609 18.0004C21.3007 18.0004 21.964 18.2637 22.4531 18.7324C22.9422 19.2011 23.217 19.8369 23.217 20.4997C23.217 21.1626 22.9422 21.7983 22.4531 22.267C21.964 22.7357 21.3007 22.9991 20.609 22.9991ZM2.60898 22.9991C2.26649 22.9991 1.92736 22.9344 1.61094 22.8088C1.29452 22.6832 1.00702 22.4991 0.764842 22.267C0.522667 22.0349 0.330563 21.7594 0.199499 21.4562C0.0684345 21.1529 0.000976563 20.8279 0.000976562 20.4997C0.000976563 20.1715 0.0684345 19.8465 0.199499 19.5433C0.330563 19.24 0.522667 18.9645 0.764842 18.7324C1.00702 18.5003 1.29452 18.3162 1.61094 18.1906C1.92736 18.065 2.26649 18.0004 2.60898 18.0004C3.30066 18.0004 3.96402 18.2637 4.45311 18.7324C4.94221 19.2011 5.21698 19.8369 5.21698 20.4997C5.21698 21.1626 4.94221 21.7983 4.45311 22.267C3.96402 22.7357 3.30066 22.9991 2.60898 22.9991Z" fill="#E74C3C"/>
</g>
<defs>
<clipPath id="clip0_355_523">
<rect width="23" height="23" fill="white"/>
</clipPath>
</defs>
</svg>
