<svg width="195" height="183" viewBox="0 0 195 183" fill="none" xmlns="http://www.w3.org/2000/svg">
<path d="M179.042 102.292C187.783 102.292 189.833 96.3563 189.833 91.5001V80.7084H114.292C114.292 93.7663 105.658 113.083 81.9166 113.083C58.1749 113.083 49.5416 93.7663 49.5416 80.7084V63.5497L27.9582 85.133L15.8034 118.309L0.354255 133.304C-0.832828 134.491 11.0153 145.458 14.1449 148.804L46.412 180.963C47.5991 182.15 49.5416 183.985 52.887 180.855L88.2837 145.458H135.875C144.616 145.458 146.667 139.523 146.667 134.667V123.875H157.458C166.2 123.875 168.25 117.94 168.25 113.083V102.292H179.042Z" fill="#F1C40F"/>
<path d="M174.617 59.1251L192.963 40.6713C194.15 39.4842 195.985 37.5417 192.855 34.1963L160.588 2.03716C159.401 0.850075 157.458 -0.984509 154.113 2.14507L129.508 26.7501H92.7082C72.9595 26.7501 71.1249 43.3692 71.1249 48.3334V80.7084C71.1249 85.5647 73.1753 91.5001 81.9166 91.5001C90.6578 91.5001 92.7082 85.5647 92.7082 80.7084V59.1251H174.617Z" fill="#F1C40F"/>
</svg>
