<svg width="62" height="65" viewBox="0 0 62 65" fill="none" xmlns="http://www.w3.org/2000/svg">
<path d="M60.8173 28.2753L33.8608 1.19475C33.4851 0.816054 33.0387 0.515581 32.5473 0.310559C32.0558 0.105537 31.5288 0 30.9966 0C30.4645 0 29.9375 0.105537 29.446 0.310559C28.9545 0.515581 28.5082 0.816054 28.1325 1.19475L1.17599 28.2753C0.420355 29.0389 -0.00262012 30.0726 1.22132e-05 31.1493V63.646C1.22132e-05 64.0051 0.142015 64.3495 0.394782 64.6034C0.647548 64.8573 0.990372 65 1.34784 65H22.9131C23.2705 65 23.6133 64.8573 23.8661 64.6034C24.1189 64.3495 24.2609 64.0051 24.2609 63.646V43.3355H37.7391V63.646C37.7391 64.0051 37.8811 64.3495 38.1339 64.6034C38.3867 64.8573 38.7295 65 39.087 65H60.6522C61.0096 65 61.3525 64.8573 61.6052 64.6034C61.858 64.3495 62 64.0051 62 63.646V31.1493C62.0004 30.6157 61.8962 30.0872 61.6932 29.5941C61.4903 29.101 61.1927 28.6529 60.8173 28.2753ZM59.3044 62.2919H40.4348V41.9815C40.4348 41.6224 40.2928 41.278 40.04 41.0241C39.7873 40.7701 39.4444 40.6275 39.087 40.6275H22.9131C22.5556 40.6275 22.2128 40.7701 21.96 41.0241C21.7072 41.278 21.5652 41.6224 21.5652 41.9815V62.2919H2.69566V31.1493C2.69552 30.9714 2.73027 30.7952 2.79792 30.6309C2.86556 30.4665 2.96478 30.3171 3.0899 30.1913L30.0464 3.1107C30.1716 2.98481 30.3202 2.88494 30.4839 2.8168C30.6475 2.74866 30.8229 2.71358 31 2.71358C31.1771 2.71358 31.3525 2.74866 31.5161 2.8168C31.6798 2.88494 31.8284 2.98481 31.9536 3.1107L58.9101 30.1913C59.0352 30.3171 59.1345 30.4665 59.2021 30.6309C59.2697 30.7952 59.3045 30.9714 59.3044 31.1493V62.2919Z" fill="#1E1E1E"/>
<path d="M59.3044 62.2919H40.4348V41.9815C40.4348 41.6224 40.2928 41.278 40.04 41.0241C39.7873 40.7701 39.4444 40.6275 39.087 40.6275H22.9131C22.5556 40.6275 22.2128 40.7701 21.96 41.0241C21.7072 41.278 21.5652 41.6224 21.5652 41.9815V62.2919H2.69566V31.1493C2.69552 30.9714 2.73027 30.7952 2.79792 30.6309C2.86556 30.4665 2.96478 30.3171 3.0899 30.1913L30.0464 3.1107C30.1716 2.98481 30.3202 2.88494 30.4839 2.8168C30.6475 2.74866 30.8229 2.71358 31 2.71358C31.1771 2.71358 31.3525 2.74866 31.5161 2.8168C31.6798 2.88494 31.8284 2.98481 31.9536 3.1107L58.9101 30.1913C59.0352 30.3171 59.1345 30.4665 59.2021 30.6309C59.2697 30.7952 59.3045 30.9714 59.3044 31.1493V62.2919Z" fill="#1E1E1E"/>
</svg>
