<svg width="71" height="64" viewBox="0 0 71 64" fill="none" xmlns="http://www.w3.org/2000/svg">
<path d="M4.39473 32.3852L4.38612 32.3931L4.37788 32.4013C3.82691 32.9523 3.25361 33.2796 2.56114 33.2796C1.95266 33.2796 1.43414 33.092 1.07576 32.783C0.724867 32.4804 0.5 32.0395 0.5 31.4589C0.5 30.7296 0.7743 30.2813 1.24416 29.8362L31.9166 1.87637L31.9174 1.87558C32.9161 0.960922 34.0626 0.530857 35.1964 0.530857C36.3334 0.530857 37.5069 0.962522 38.4689 1.8694L38.4688 1.86944L38.4745 1.87461L50.4085 12.7839L51.2459 13.5494V12.4149V2.169C51.2459 1.62387 51.429 1.21704 51.708 0.946201C51.9889 0.673549 52.4072 0.5 52.9457 0.5H56.8929C57.4479 0.5 57.8544 0.674425 58.1209 0.940964C58.3874 1.2075 58.5619 1.61393 58.5619 2.169V19.9787V20.1997L58.7253 20.3485L69.1524 29.8396L69.1552 29.8421C69.4081 30.0689 69.5869 30.2899 69.7052 30.535C69.8224 30.7781 69.8929 31.071 69.8929 31.4589C69.8929 32.0393 69.6678 32.4802 69.3167 32.7829C68.9581 33.092 68.4395 33.2796 67.8317 33.2796C67.1711 33.2796 66.5961 32.9551 66.0064 32.3929L66.0065 32.3929L65.9983 32.3854L36.6191 5.59801C36.6188 5.59775 36.6185 5.59748 36.6182 5.59722C36.177 5.19095 35.7277 5.01314 35.226 5.01314C34.7177 5.01314 34.2272 5.17649 33.797 5.60377L4.39473 32.3852ZM43.3503 62.8716V41.9451C43.3503 41.1413 43.086 40.4345 42.5785 39.9274C42.0711 39.4204 41.3641 39.1566 40.5604 39.1566H29.9224C29.1193 39.1566 28.4068 39.42 27.8928 39.9242C27.3778 40.4295 27.103 41.1366 27.103 41.9451V62.8716H15.3977C13.3682 62.8716 11.8115 62.2898 10.7639 61.2691C9.71801 60.2501 9.11814 58.7339 9.11814 56.7411V35.0551L34.4476 12.0314L34.4494 12.0297C34.7556 11.7487 34.9721 11.6793 35.136 11.6793C35.3501 11.6793 35.5961 11.7667 35.8544 12.0009L35.8556 12.002L61.2747 34.9059V56.7411C61.2747 58.7356 60.6812 60.2518 59.6427 61.2702C58.6027 62.2899 57.0542 62.8716 55.0247 62.8716H43.3503Z" stroke="white"/>
</svg>
