<svg width="72" height="64" viewBox="0 0 72 64" fill="none" xmlns="http://www.w3.org/2000/svg">
<path d="M0.803467 31.7738C0.803467 33.2202 1.94775 34.0945 3.36461 34.0945C4.2389 34.0945 4.9319 33.6728 5.5349 33.0698L34.9456 6.28066C35.276 5.94894 35.6386 5.82808 36.0295 5.82808C36.392 5.82808 36.7238 5.94894 37.0838 6.28066L66.4649 33.0698C67.0975 33.6728 67.7905 34.0945 68.6352 34.0945C70.0508 34.0945 71.1963 33.2202 71.1963 31.7738C71.1963 30.8699 70.8646 30.2978 70.2925 29.7848L59.8653 20.2937V2.48394C59.8653 1.15837 59.0219 0.314941 57.6963 0.314941H53.7492C52.4532 0.314941 51.5493 1.15837 51.5493 2.48394V12.7298L39.6153 1.82051C38.561 0.826656 37.265 0.345799 35.9999 0.345799C34.7335 0.345799 33.4683 0.827941 32.3832 1.8218L1.70732 29.7848C1.16475 30.2978 0.803467 30.8699 0.803467 31.7738ZM9.42161 57.0561C9.42161 61.2449 11.9532 63.6865 16.2012 63.6865H28.4065V42.2601C28.4065 40.8741 29.3399 39.9715 30.7259 39.9715H41.3639C42.7499 39.9715 43.6538 40.8741 43.6538 42.2601V63.6865H55.8282C60.0762 63.6865 62.5782 61.2449 62.5782 57.0561V34.9984L36.9938 11.9455C36.662 11.6447 36.3008 11.4942 35.9395 11.4942C35.6078 11.4942 35.276 11.6447 34.9148 11.9764L9.42161 35.1488V57.0561Z" fill="#F1C40F"/>
</svg>
