<svg width="1384" height="724" viewBox="0 0 1384 724" fill="none" xmlns="http://www.w3.org/2000/svg">
<path d="M-1.82401 205.557L0.308555 9.87152L1185.27 12.1711L1185.27 516.906L1371.78 518.822L1370.22 533.588L1361.1 530.679L1354.03 533.422L1365.93 540.583L1365.8 553.252L1374.93 554.753L1377.63 566.043L1355.39 607.345L1346.24 607.251L1346.33 598.101L1330.01 610.604L1316.19 654.103C1313.62 653.138 1305.64 653.713 1294.27 663.733C1295.36 667.123 1290.32 682.932 1287.66 690.413C1273.8 692.382 1241.85 696.559 1224.94 697.512C1211.42 698.499 1204.19 708.091 1202.26 712.764C1198.52 711.553 1187.8 708.815 1174.86 707.556C1154.58 708.473 1145.2 717.105 1143.05 721.307L1132.49 721.198C1133.2 720.736 1135.36 716.16 1138.32 701.549C1128.12 708.202 1126.55 705.182 1127.05 702.841C1129 695.822 1136.13 681.677 1149.09 681.247C1151.35 680.707 1164.29 663.336 1170.48 654.718C1166.46 657.258 1154.77 662.3 1140.13 662.149C1135.74 651.405 1150.65 643.722 1158.65 641.223L1151.66 636.224L1122.79 637.335L1116.39 644.308C1114.52 642.881 1111.11 637.356 1112.34 626.669C1111.87 618.217 1135.28 609.776 1147.04 606.612C1147.52 605.913 1143.44 601.085 1123.31 587.363C1149.28 525.687 1139.31 536.847 1138.61 536.84C1138.04 536.834 1130.27 548.955 1126.45 555.017C1122.91 559.416 1113.4 573.746 1103.65 595.984C1103.61 596.099 1103.56 596.208 1103.5 596.311C1103.55 596.202 1103.6 596.093 1103.65 595.984C1105.45 591.129 1097.98 576.383 1093.93 569.464L1105.24 564.653L1105.38 550.577C1104.22 549.861 1097.74 554.018 1081.18 576.372C1090.11 584.348 1083.31 597.98 1078.79 603.8C1073.48 595.768 1061.02 579.263 1053.72 577.498C1052.11 570.161 1035.46 550.328 1027.34 541.328C1025.22 542.245 1022.2 548.455 1027.09 565.962C1018.73 557.993 1005.66 528.201 1000.17 514.301L993.197 507.895L998.21 499.499L1007.27 508.039L1021.57 487.069C1027.21 485.485 1037.39 481.741 1032.91 479.443C1028.43 477.144 1034.85 472.893 1038.62 471.055L1028.14 463.908L1021.73 470.881L1007.61 474.959L1009.88 459.497L1005.78 447.489L1036.71 452.03L1047.95 454.257L1071.07 464.349L1099.97 460.422L1106.56 435.854L1103.04 435.817L1097.28 448.428L1082.44 454.611L1067.72 448.125L1064.33 435.42L1055.14 439.549L1044.62 435.217L1057.44 421.271L1041.95 421.112L1042.08 408.443L1030.71 419.589L1024.54 403.336L1028.85 394.933L1022.58 388.534L1006.24 403.148L1006.45 382.737L997.118 400.239C998.964 403.308 1000.1 411.672 989.87 420.577C984.65 380.542 1001.74 361.806 1010.93 357.443C1015.59 360.306 1024.91 366.878 1024.88 370.256C1024.84 373.634 1030.86 382.049 1033.87 385.834L1053.55 388.852L1057.96 370.596L1045.19 379.615L1037.55 370.386L1045.46 354.278L1060.32 345.984L1049.1 342.349L1049.2 332.495L1042.91 328.207L1039.99 338.032L1034.38 335.863L1034.54 320.379L1020.54 312.492L1017.7 315.278L990.723 337.526C991.635 340.116 992.041 346.268 986.37 350.151C975.869 330.898 989.941 299.508 998.289 286.219L1025.58 301.985C1030.53 300.159 1041.55 296.096 1046.07 294.453C1050.59 292.81 1046.2 281.549 1043.44 276.125L1054.75 272.017L1054.84 262.868L1073.4 237.718L1061.33 248.152L1046.55 248.001L1050.12 242.406L1040.94 245.831L1035.04 271.815L1025.78 282.278C1025.16 274.06 1023.94 256.215 1024 250.585C1024.05 244.954 1016.13 239.241 1012.17 237.089L1033.01 195.773C1035.16 192.041 1039.9 182.048 1041.7 171.93C1050.18 168.075 1058.98 156.856 1062.32 151.729L1147.51 149.788L1136.33 141.93L1100.43 141.562C1098.1 140.599 1093.3 137.124 1092.8 130.925C1092.3 124.725 1111.99 112.586 1121.9 107.291L1147.87 114.597L1132.56 97.5462L1148.38 65.3293L1104.31 107.111C1102.41 108.733 1098.66 108.601 1098.8 95.0877C1108.99 89.5612 1116.44 67.5823 1118.9 57.2837L1099.03 72.5654L1067.29 78.5745L1062.98 86.977C1062.48 90.4913 1064.11 100.785 1074.67 113.845C1071.19 123.945 1044.36 141.22 1031.38 148.595L1025.12 140.788C1028.04 130.494 1031.63 110.165 1022.61 111.199C1013.59 112.232 1012.55 131.274 1013.16 140.665L1017.19 159.712L1009.32 171.597C1007.92 171.348 1004.05 164.223 999.815 137.713C995.368 132.036 978.705 137.027 970.929 140.232L982.85 144.577L992.574 157.347L980.551 162.855L980.5 167.782C980.022 168.715 975.973 169.988 963.609 167.608C965.194 177.761 971.158 186.456 973.942 189.535L968.311 189.477L957.862 178.812L945.948 173.762L973.826 200.796C974.044 202.441 968.698 206.657 945.572 210.361C926.125 184.821 907.57 186.742 900.723 190.895L907.725 194.486L916.062 205.13L927.273 210.173L934.137 227.137C935.303 227.853 940.028 229.309 949.6 229.407C961.866 241.359 961.953 260.271 960.463 268.233C960.26 265.181 959.285 259.634 957.009 261.863C954.734 264.092 945.758 260.809 941.554 258.888C940.413 255.826 937.26 252.087 933.783 261.624C943.907 262.854 961.767 278.336 969.432 285.923L948.92 295.567L926.629 272.813C926.663 269.529 925.011 265.898 918.133 277.653C927.124 279.435 942.294 301.13 948.754 311.755L950.707 327.26L933.27 311.596L924.12 311.502L926.138 320.673C938.502 327.604 955.77 341.39 925.928 341.084C932.644 345.095 930.004 355.438 927.844 360.109L940.513 360.239L919.755 393.813C920.687 394.526 924.489 398.929 932.251 410.835C927.16 413.035 930.004 423.951 932.063 429.134L931.622 472.067L972.461 539.357L972.359 549.21L966.642 557.598L947.639 557.403L942.182 540.454C938.447 538.538 929.015 533.983 921.161 531.087C913.307 528.191 896.589 501.975 889.212 489.229L878.608 425.066L880.149 480.689L895.888 524.493C907.068 532.585 929.708 548.772 930.834 548.784C928.472 559.459 941.402 570.713 948.162 575.006L969.262 576.631C970.9 577.117 973.159 581.035 969.096 592.819C975.232 598.513 984.889 631.46 988.95 647.223C988.677 650.974 988.938 662.145 992.166 676.819C987.185 668.321 969.144 656.639 960.747 651.86L955.42 622.242L947.075 612.302L949.027 627.807L941.17 638.989C940.052 633.581 934.827 625.972 922.87 638.801C923.044 621.909 914.68 613.846 910.476 611.926C909.833 606.053 896.573 594.889 848.684 597.213C851.586 588.796 827.776 554.061 815.508 537.745L825.769 566.71L825.61 582.194L812.941 582.064L789.279 555.777L767.27 505.574C766.812 504.396 762.472 506.651 748.768 525.093C741.46 523.892 742.999 515.649 744.682 511.677L737.644 511.605C736.701 512.064 735.785 514.401 739.669 520.072C737.841 533.568 721.363 543.348 713.352 546.55C711.957 545.363 707.912 541.708 702.896 536.588C697.881 531.469 695.46 506.714 694.877 494.976C696.069 493.111 699.039 487.276 701.378 478.853C703.717 470.43 718.407 465.654 725.459 464.319L717.057 460.009L725.611 449.538L735.494 446.824L749.867 418.112L770.371 409.172L770.487 397.911L776.176 392.338L773.57 371.898L799.944 339.79L765.259 290.161L741.758 316.668L736.911 308.875L705.34 298.696L700.572 283.161L685.225 269.63L647.284 262.905L622.853 242.945L620.915 226.031L632.981 216.301L633.183 196.594L621.247 193.656L607.351 175.915L573.691 163.603C568.757 164.257 556.097 163.282 544.928 154.157C547.308 141.793 544.26 127.872 542.438 122.456L530.531 116.703C528.898 115.748 527.052 112.725 532.729 108.279C529.989 100.93 534.04 94.9182 536.407 92.8308L519.516 92.6573L519.682 76.4694L508.334 84.7996L503.617 64.3381L515.015 51.0811C513.167 48.2466 508.76 43.274 505.916 46.0604C503.072 48.8468 484.052 50.2939 474.897 50.6691L448.046 36.728C451.038 59.933 421.271 28.6598 410.01 28.5441C399.851 30.6922 383.615 28.8492 377.196 36.9954C370.4 36.2217 355.677 35.0851 351.155 36.728C346.633 38.3709 335.165 40.0832 329.997 40.734C334.413 44.7681 340.147 53.0861 327.748 54.085C316.452 57.3477 322.983 61.075 327.661 62.5309C326.696 65.1019 323.631 71.077 319.092 74.4091C313.418 78.5742 293.798 69.9259 282.45 78.2561C252.062 76.2547 234.282 62.041 229.191 55.1844C233.951 48.6636 238.684 35.5728 219.54 35.3761C210.438 44.2925 211.346 56.4089 212.938 61.3525L195.967 68.9211L158.941 110.071L135.156 95.7485C129.327 92.1691 117.631 88.6703 117.481 103.31C117.331 117.949 83.3118 140.5 66.3213 149.945L59.8279 165.364L39.3447 172.193L-1.82401 205.557Z" fill="#F1C40F"/>
<path d="M795.432 265.393C793.609 265.393 791.86 264.669 790.571 263.379C789.282 262.09 788.557 260.341 788.557 258.518C788.557 256.695 789.282 254.946 790.571 253.657C791.86 252.367 793.609 251.643 795.432 251.643C797.256 251.643 799.004 252.367 800.294 253.657C801.583 254.946 802.307 256.695 802.307 258.518C802.307 259.421 802.129 260.315 801.784 261.149C801.438 261.983 800.932 262.741 800.294 263.379C799.655 264.018 798.897 264.524 798.063 264.87C797.229 265.215 796.335 265.393 795.432 265.393ZM795.432 239.268C790.327 239.268 785.431 241.296 781.82 244.906C778.21 248.516 776.182 253.413 776.182 258.518C776.182 272.956 795.432 294.268 795.432 294.268C795.432 294.268 814.682 272.956 814.682 258.518C814.682 253.413 812.654 248.516 809.044 244.906C805.434 241.296 800.538 239.268 795.432 239.268Z" fill="#E74C3C"/>
<path d="M818.432 320.435C816.664 320.435 814.968 319.732 813.718 318.482C812.468 317.232 811.766 315.536 811.766 313.768C811.766 312 812.468 310.304 813.718 309.054C814.968 307.804 816.664 307.101 818.432 307.101C820.2 307.101 821.896 307.804 823.146 309.054C824.397 310.304 825.099 312 825.099 313.768C825.099 314.643 824.927 315.51 824.591 316.319C824.256 317.128 823.765 317.863 823.146 318.482C822.527 319.101 821.792 319.592 820.984 319.927C820.175 320.262 819.308 320.435 818.432 320.435ZM818.432 295.101C813.482 295.101 808.734 297.068 805.233 300.569C801.732 304.069 799.766 308.817 799.766 313.768C799.766 327.768 818.432 348.435 818.432 348.435C818.432 348.435 837.099 327.768 837.099 313.768C837.099 308.817 835.132 304.069 831.632 300.569C828.131 297.068 823.383 295.101 818.432 295.101Z" fill="#E74C3C"/>
<path d="M742.432 230.31C740.498 230.31 738.644 229.541 737.276 228.174C735.909 226.807 735.141 224.952 735.141 223.018C735.141 221.084 735.909 219.229 737.276 217.862C738.644 216.495 740.498 215.726 742.432 215.726C744.366 215.726 746.221 216.495 747.588 217.862C748.956 219.229 749.724 221.084 749.724 223.018C749.724 223.976 749.535 224.924 749.169 225.808C748.802 226.693 748.265 227.497 747.588 228.174C746.911 228.851 746.107 229.388 745.223 229.755C744.338 230.121 743.39 230.31 742.432 230.31ZM742.432 202.601C737.017 202.601 731.824 204.752 727.996 208.581C724.167 212.41 722.016 217.603 722.016 223.018C722.016 238.33 742.432 260.935 742.432 260.935C742.432 260.935 762.849 238.33 762.849 223.018C762.849 217.603 760.698 212.41 756.869 208.581C753.04 204.752 747.847 202.601 742.432 202.601Z" fill="#E74C3C"/>
</svg>
