<svg width="1280" height="590" viewBox="0 0 1280 590" fill="none" xmlns="http://www.w3.org/2000/svg">
<path d="M1.5 156.5L38.4048 124.666L55.3786 118.929L60.7595 105.975C74.8391 98.0396 103.029 79.0941 103.154 66.795C103.279 54.496 112.971 57.4355 117.801 60.4426L137.511 72.4751L168.193 37.9041L182.257 31.5456C180.938 27.3923 180.185 17.213 187.728 9.72211C203.592 9.88731 199.669 20.8852 195.725 26.3636C199.944 32.124 214.678 44.0653 239.86 45.7468C249.263 38.7483 265.522 46.014 270.224 42.5148C273.986 39.7154 276.525 34.6956 277.325 32.5355C273.448 31.3125 268.036 28.181 277.397 25.4399C287.671 24.6007 282.92 17.6126 279.26 14.2234C283.543 13.6767 293.046 12.2381 296.793 10.8578C300.54 9.47757 312.741 10.4325 318.373 11.0825C323.692 4.23869 337.147 5.78704 345.565 3.98233C354.897 4.0795 379.564 30.353 377.084 10.8578L399.336 22.5701C406.922 22.2549 422.683 21.0392 425.04 18.6983C427.397 16.3574 431.049 20.5349 432.58 22.9163L423.134 34.0539L427.043 51.2441L436.447 44.2457L436.309 57.8456L450.307 57.9914C448.345 59.745 444.988 64.7958 447.259 70.9696C442.555 74.7054 444.085 77.2444 445.438 78.047L455.305 82.8807C456.814 87.4302 459.34 99.126 457.368 109.513C466.623 117.179 477.114 117.998 481.203 117.449L509.097 127.793L520.612 142.697L530.503 145.165L530.335 161.722L520.336 169.897L521.942 184.106L542.188 200.875L573.629 206.525L586.346 217.893L590.297 230.944L616.459 239.496L620.476 246.043L639.95 223.774L668.693 265.468L646.837 292.444L648.997 309.616L644.283 314.297L644.187 323.758L627.195 331.269L615.285 355.391L607.095 357.671L600.007 366.468L606.97 370.088C601.125 371.21 588.952 375.223 587.014 382.299C585.075 389.375 582.615 394.278 581.627 395.845C582.11 405.706 584.116 426.503 588.272 430.804C592.428 435.105 595.78 438.176 596.937 439.174C603.575 436.483 617.229 428.267 618.744 416.929C615.526 412.164 616.285 410.201 617.066 409.815L622.899 409.876C621.504 413.212 620.228 420.138 626.284 421.147C637.641 405.653 641.238 403.759 641.616 404.748L659.855 446.925L679.463 469.01L689.962 469.119L690.093 456.11L681.59 431.776C691.756 445.483 711.487 474.665 709.083 481.737C748.767 479.785 759.755 489.164 760.288 494.097C763.771 495.71 770.702 502.485 770.558 516.676C780.467 505.898 784.797 512.291 785.723 516.834L792.234 507.44L790.616 494.413L797.531 502.764L801.946 527.647C808.904 531.662 823.854 541.477 827.982 548.616C825.307 536.288 825.091 526.903 825.317 523.751C821.951 510.509 813.949 482.829 808.864 478.045C812.231 468.145 810.359 464.853 809.002 464.445L791.517 463.08C785.915 459.474 775.2 450.019 777.158 441.05C776.225 441.04 757.463 427.441 748.199 420.642L735.156 383.842L733.88 337.111L742.667 391.016C748.78 401.725 762.634 423.749 769.142 426.183C775.65 428.616 783.467 432.443 786.561 434.052L791.084 448.292L806.831 448.456L811.569 441.409L811.653 433.13L777.811 376.598L778.176 340.529C776.47 336.175 774.113 327.004 778.332 325.155C771.9 315.153 768.749 311.454 767.977 310.855L785.179 282.648L774.68 282.539C776.47 278.615 778.658 269.925 773.092 266.556C797.822 266.813 783.512 255.231 773.266 249.408L771.594 241.703L779.176 241.782L793.626 254.942L792.008 241.915C786.654 232.989 774.084 214.763 766.633 213.266C772.333 203.39 773.701 206.44 773.674 209.199L792.145 228.315L809.143 220.213C802.792 213.839 787.991 200.833 779.602 199.799C782.483 191.787 785.095 194.929 786.041 197.501C789.525 199.114 796.963 201.873 798.849 200C800.734 198.127 801.542 202.787 801.711 205.352C802.945 198.663 802.873 182.774 792.709 172.733C784.777 172.651 780.861 171.427 779.895 170.826L774.207 156.574L764.917 152.337L758.008 143.395L752.205 140.378C757.879 136.889 773.256 135.275 789.371 156.732C808.535 153.619 812.965 150.078 812.784 148.696L789.682 125.984L799.556 130.226L808.214 139.187L812.88 139.235C810.573 136.649 805.631 129.343 804.317 120.814C814.563 122.813 817.918 121.744 818.315 120.96L818.357 116.821L828.32 112.193L820.262 101.465L810.383 97.814C816.827 95.1214 830.635 90.9286 834.32 95.6978C837.828 117.97 841.033 123.956 842.198 124.165L848.715 114.18L845.378 98.1784C844.874 90.2883 845.736 74.2911 853.211 73.4227C860.686 72.5544 857.714 89.6336 855.293 98.2817L860.476 104.841C871.233 98.6448 893.467 84.1317 896.353 75.6461C887.598 64.6738 886.247 56.0259 886.666 53.0734L890.237 46.0142L916.537 40.9658L932.999 28.1272C930.967 36.7794 924.791 55.2445 916.345 59.8874C916.23 71.2404 919.34 71.3516 920.909 69.9881L957.429 34.8866L944.322 61.9529L957.01 76.2777L935.49 70.14C927.279 74.5883 910.96 84.7869 911.373 89.9952C911.787 95.2035 915.763 98.1229 917.699 98.9315L947.445 99.2413L956.71 105.843L886.115 107.473C883.349 111.781 876.059 121.206 869.027 124.445C867.541 132.945 863.606 141.341 861.824 144.476L844.557 179.187C847.844 180.995 854.406 185.794 854.358 190.525C854.31 195.255 855.325 210.247 855.838 217.151L863.51 208.361L868.398 186.531L876.01 183.654L873.046 188.354L885.294 188.481L895.299 179.715L879.919 200.844L879.841 208.531L870.473 211.982C872.76 216.539 876.398 225.999 872.65 227.38C868.903 228.76 859.769 232.174 855.671 233.708L833.056 220.462C826.138 231.626 814.477 257.998 823.179 274.174C827.879 270.911 827.542 265.743 826.786 263.567L849.141 244.876L851.498 242.535L863.097 249.161L862.965 262.169L867.613 263.992L870.03 255.738L875.243 259.34L875.159 267.618L884.461 270.672L872.141 277.64L865.588 291.173L871.926 298.927L882.502 291.349L878.847 306.687L862.54 304.152C860.044 300.972 855.061 293.902 855.09 291.064C855.118 288.226 847.397 282.705 843.533 280.299C835.913 283.965 821.754 299.706 826.079 333.34C834.555 325.859 833.615 318.832 832.086 316.253L839.817 301.55L839.644 318.697L853.184 306.42L858.379 311.796L854.808 318.855L859.919 332.51L869.347 323.146L869.239 333.789L882.07 333.923L871.452 345.64L880.165 349.279L887.783 345.81L890.591 356.484L902.786 361.933L915.087 356.739L919.861 346.144L922.777 346.174L917.319 366.815L893.37 370.114L874.207 361.635L864.893 359.764L839.266 355.949L842.664 366.038L840.782 379.028L852.483 375.602L857.792 369.743L866.481 375.748C863.354 377.292 858.03 380.864 861.743 382.795C865.457 384.726 857.025 387.871 852.345 389.202L840.501 406.819L832.991 399.645L828.836 406.698L834.615 412.08C839.163 423.758 849.992 448.787 856.924 455.482C852.873 440.774 855.376 435.557 857.133 434.787C863.862 442.347 877.653 459.01 878.991 465.174C885.042 466.656 895.362 480.523 899.766 487.271C903.51 482.381 909.148 470.928 901.749 464.228C915.472 445.447 920.835 441.955 921.801 442.556L921.681 454.382L912.307 458.424C915.747 464.374 922.15 477.214 920.245 480.979C928.369 462.14 936.308 450.001 939.262 446.286C942.425 441.194 948.866 431.011 949.333 431.016C949.916 431.022 958.177 421.646 936.654 473.462C953.336 484.99 956.717 489.046 956.322 489.634C946.573 492.292 927.175 499.383 927.57 506.484C926.545 515.462 929.376 520.104 930.919 521.303L936.228 515.444L960.153 514.511L965.944 518.711C959.311 520.81 946.958 527.265 950.6 536.292C962.731 536.418 972.418 532.182 975.745 530.049C970.616 537.289 959.891 551.882 958.02 552.336C947.284 552.697 941.369 564.581 939.754 570.478C939.345 572.445 940.642 574.981 949.098 569.392C946.64 581.667 944.851 585.512 944.264 585.9L953.013 585.991C954.798 582.462 962.571 575.21 979.378 574.439C990.1 575.496 998.982 577.797 1002.08 578.815C1003.68 574.889 1009.67 566.83 1020.88 566C1034.89 565.2 1061.36 561.691 1072.85 560.037C1075.05 553.752 1079.23 540.47 1078.33 537.622C1087.75 529.204 1094.36 528.721 1096.49 529.532L1107.95 492.987L1121.47 482.483L1121.39 490.17L1128.97 490.249L1147.41 455.55L1145.17 446.065L1137.6 444.804L1137.71 434.16L1127.85 428.144L1133.71 425.839L1145.17 412.08L1280 412.08" stroke="#F1C40F"/>
<path d="M666.953 203.693C665.442 203.693 663.993 203.004 662.925 201.779C661.857 200.554 661.256 198.892 661.256 197.159C661.256 195.427 661.857 193.765 662.925 192.54C663.993 191.314 665.442 190.626 666.953 190.626C668.464 190.626 669.913 191.314 670.982 192.54C672.05 193.765 672.651 195.427 672.651 197.159C672.651 198.017 672.503 198.867 672.217 199.66C671.931 200.452 671.511 201.172 670.982 201.779C670.453 202.386 669.825 202.867 669.134 203.195C668.442 203.524 667.702 203.693 666.953 203.693ZM666.953 178.866C662.723 178.866 658.665 180.793 655.674 184.224C652.682 187.655 651.001 192.308 651.001 197.159C651.001 210.879 666.953 231.133 666.953 231.133C666.953 231.133 682.905 210.879 682.905 197.159C682.905 192.308 681.225 187.655 678.233 184.224C675.242 180.793 671.184 178.866 666.953 178.866Z" fill="#E74C3C"/>
<path d="M686.197 251.075C684.732 251.075 683.327 250.407 682.291 249.219C681.255 248.031 680.673 246.419 680.673 244.739C680.673 243.059 681.255 241.448 682.291 240.259C683.327 239.071 684.732 238.404 686.197 238.404C687.663 238.404 689.068 239.071 690.104 240.259C691.14 241.448 691.722 243.059 691.722 244.739C691.722 245.571 691.579 246.395 691.301 247.164C691.024 247.932 690.617 248.631 690.104 249.219C689.591 249.807 688.982 250.274 688.311 250.592C687.641 250.911 686.923 251.075 686.197 251.075ZM686.197 227C682.095 227 678.16 228.869 675.259 232.196C672.358 235.523 670.729 240.035 670.729 244.739C670.729 258.043 686.197 277.683 686.197 277.683C686.197 277.683 701.666 258.043 701.666 244.739C701.666 240.035 700.036 235.523 697.135 232.196C694.234 228.869 690.3 227 686.197 227Z" fill="#E74C3C"/>
<path d="M614.657 177.332C613.054 177.332 611.517 176.602 610.384 175.302C609.251 174.003 608.614 172.24 608.614 170.402C608.614 168.565 609.251 166.802 610.384 165.503C611.517 164.203 613.054 163.473 614.657 163.473C616.259 163.473 617.796 164.203 618.929 165.503C620.062 166.802 620.699 168.565 620.699 170.402C620.699 171.312 620.543 172.213 620.239 173.054C619.935 173.895 619.49 174.659 618.929 175.302C618.368 175.945 617.702 176.456 616.969 176.804C616.236 177.152 615.45 177.332 614.657 177.332ZM614.657 151C610.169 151 605.866 153.044 602.693 156.683C599.52 160.322 597.738 165.257 597.738 170.402C597.738 184.954 614.657 206.435 614.657 206.435C614.657 206.435 631.575 184.954 631.575 170.402C631.575 165.257 629.793 160.322 626.62 156.683C623.447 153.044 619.144 151 614.657 151Z" fill="#E74C3C"/>
</svg>
