<svg width="1271" height="589" viewBox="0 0 1271 589" fill="none" xmlns="http://www.w3.org/2000/svg">
<path d="M4.25049 156.084L41.1552 124.25L58.1291 118.513L63.51 105.559C77.5896 97.6235 105.78 78.6781 105.905 66.379C106.029 54.08 115.721 57.0194 120.551 60.0266L140.262 72.0591L170.944 37.4881L185.007 31.1296C183.688 26.9763 182.936 16.797 190.478 9.3061C206.342 9.47129 202.42 20.4692 198.476 25.9476C202.695 31.708 217.429 43.6493 242.61 45.3308C252.014 38.3323 268.273 45.598 272.975 42.0988C276.736 39.2994 279.276 34.2795 280.075 32.1195C276.199 30.8964 270.787 27.765 280.147 25.0239C290.422 24.1847 285.671 17.1966 282.011 13.8074C286.294 13.2607 295.797 11.8221 299.544 10.4418C303.291 9.06156 315.492 10.0165 321.124 10.6665C326.443 3.82267 339.897 5.37102 348.315 3.56631C357.647 3.66349 382.314 29.937 379.835 10.4418L402.086 22.1541C409.672 21.8389 425.434 20.6232 427.79 18.2823C430.147 15.9413 433.799 20.1189 435.331 22.5003L425.885 33.6379L429.794 50.8281L439.198 43.8297L439.06 57.4296L453.058 57.5753C451.095 59.329 447.739 64.3798 450.01 70.5536C445.305 74.2893 446.835 76.8284 448.188 77.631L458.055 82.4646C459.565 87.0142 462.09 98.71 460.118 109.097C469.374 116.763 479.865 117.582 483.953 117.033L511.847 127.377L523.362 142.281L533.253 144.749L533.085 161.306L523.086 169.481L524.692 183.69L544.938 200.459L576.379 206.109L589.097 217.477L593.047 230.528L619.209 239.08L623.226 245.627L642.701 223.358L671.443 265.052L649.588 292.028L651.747 309.2L647.033 313.881L646.937 323.342L629.945 330.853L618.035 354.975L609.846 357.255L602.757 366.052L609.72 369.672C603.876 370.794 591.702 374.807 589.764 381.883C587.826 388.959 585.365 393.862 584.377 395.429C584.861 405.29 586.866 426.087 591.023 430.388C595.179 434.689 598.531 437.76 599.687 438.758C606.325 436.067 619.98 427.851 621.495 416.513C618.277 411.748 619.035 409.785 619.817 409.399L625.649 409.46C624.255 412.796 622.979 419.722 629.035 420.731C640.391 405.237 643.988 403.343 644.367 404.332L662.605 446.509L682.214 468.594L692.712 468.703L692.844 455.694L684.341 431.36C694.507 445.067 714.238 474.249 711.833 481.321C751.517 479.369 762.505 488.748 763.038 493.681C766.522 495.294 773.453 502.069 773.309 516.26C783.218 505.482 787.547 511.874 788.473 516.418L794.985 507.024L793.367 493.997L800.282 502.348L804.696 527.231C811.655 531.246 826.605 541.061 830.732 548.2C828.057 535.872 827.841 526.487 828.068 523.335C824.702 510.093 816.699 482.413 811.615 477.629C814.982 467.729 813.11 464.437 811.753 464.029L794.267 462.664C788.665 459.058 777.951 449.603 779.908 440.634C778.975 440.624 760.214 427.025 750.95 420.226L737.907 383.426L736.63 336.695L745.417 390.6C751.53 401.309 765.384 423.333 771.893 425.767C778.401 428.2 786.217 432.027 789.312 433.636L793.834 447.876L809.581 448.039L814.319 440.992L814.403 432.714L780.561 376.182L780.927 340.113C779.221 335.759 776.864 326.588 781.082 324.739C774.651 314.737 771.499 311.038 770.728 310.439L787.929 282.232L777.431 282.123C779.221 278.199 781.408 269.509 775.843 266.14C800.572 266.397 786.263 254.815 776.017 248.992L774.345 241.287L781.927 241.366L796.376 254.526L794.758 241.499C789.404 232.573 776.834 214.347 769.383 212.85C775.083 202.974 776.452 206.024 776.424 208.783L794.896 227.899L811.894 219.797C805.542 213.423 790.741 200.417 782.352 199.383C785.233 191.371 787.846 194.512 788.792 197.085C792.275 198.698 799.714 201.456 801.599 199.584C803.485 197.711 804.293 202.371 804.461 204.936C805.696 198.247 805.623 182.358 795.459 172.317C787.527 172.235 783.612 171.011 782.646 170.41L776.957 156.158L767.667 151.921L760.758 142.979L754.956 139.962C760.63 136.473 776.006 134.859 792.121 156.316C811.285 153.203 815.715 149.662 815.535 148.28L792.433 125.568L802.306 129.81L810.965 138.771L815.631 138.819C813.324 136.233 808.381 128.927 807.068 120.398C817.314 122.397 820.669 121.328 821.066 120.544L821.108 116.405L831.07 111.777L823.013 101.049L813.134 97.398C819.577 94.7054 833.386 90.5125 837.071 95.2818C840.578 117.554 843.784 123.54 844.948 123.749L851.466 113.764L848.128 97.7624C847.625 89.8723 848.487 73.8751 855.962 73.0067C863.437 72.1384 860.464 89.2175 858.043 97.8657L863.226 104.425C873.983 98.2288 896.218 83.7156 899.104 75.2301C890.349 64.2578 888.997 55.6098 889.416 52.6574L892.987 45.5982L919.287 40.5498L935.75 27.7112C933.718 36.3634 927.542 54.8285 919.095 59.4714C918.98 70.8244 922.09 70.9356 923.66 69.5721L960.18 34.4706L947.073 61.5369L959.76 75.8617L938.24 69.724C930.029 74.1722 913.71 84.3709 914.124 89.5792C914.538 94.7875 918.514 97.7069 920.45 98.5155L950.195 98.8253L959.461 105.427L888.865 107.057C886.099 111.365 878.81 120.79 871.777 124.029C870.291 132.529 866.357 140.925 864.575 144.06L847.307 178.771C850.594 180.579 857.157 185.378 857.109 190.109C857.061 194.839 858.075 209.831 858.589 216.735L866.261 207.945L871.148 186.115L878.76 183.238L875.796 187.938L888.044 188.065L898.049 179.299L882.669 200.428L882.591 208.115L873.224 211.565C875.511 216.123 879.148 225.583 875.401 226.964C871.654 228.344 862.52 231.758 858.421 233.292L835.807 220.046C828.888 231.21 817.227 257.582 825.93 273.758C830.629 270.495 830.293 265.327 829.537 263.151L851.892 244.46L854.249 242.119L865.848 248.745L865.716 261.753L870.364 263.576L872.78 255.322L877.994 258.924L877.91 267.202L887.212 270.256L874.892 277.224L868.338 290.757L874.676 298.511L885.252 290.933L881.597 306.271L865.29 303.736C862.795 300.556 857.811 293.486 857.84 290.648C857.869 287.81 850.147 282.289 846.283 279.883C838.663 283.549 824.504 299.29 828.83 332.924C837.305 325.443 836.365 318.416 834.836 315.837L842.568 301.133L842.394 318.281L855.935 306.004L861.13 311.38L857.558 318.439L862.67 332.094L872.098 322.73L871.99 333.373L884.821 333.507L874.203 345.224L882.915 348.863L890.534 345.394L893.342 356.068L905.536 361.517L917.838 356.323L922.612 345.728L925.528 345.758L920.069 366.399L896.12 369.698L876.957 361.219L867.643 359.348L842.017 355.533L845.414 365.622L843.533 378.612L855.234 375.186L860.543 369.327L869.231 375.332C866.105 376.876 860.78 380.448 864.494 382.379C868.207 384.31 859.776 387.455 855.096 388.786L843.251 406.403L835.741 399.229L831.587 406.282L837.365 411.664C841.913 423.342 852.742 448.371 859.674 455.066C855.623 440.358 858.126 435.141 859.884 434.371C866.612 441.931 880.404 458.594 881.741 464.758C887.793 466.24 898.113 480.107 902.516 486.855C906.26 481.965 911.898 470.512 904.5 463.812C918.223 445.031 923.585 441.539 924.551 442.14L924.432 453.966L915.058 458.008C918.497 463.958 924.9 476.798 922.996 480.563C931.119 461.724 939.058 449.585 942.013 445.87C945.175 440.778 951.617 430.595 952.083 430.6C952.667 430.606 960.928 421.23 939.404 473.046C956.086 484.574 959.467 488.63 959.073 489.218C949.324 491.876 929.925 498.967 930.32 506.068C929.296 515.046 932.126 519.688 933.67 520.887L938.979 515.028L962.904 514.095L968.694 518.295C962.062 520.394 949.708 526.849 953.35 535.876C965.481 536.002 975.168 531.766 978.495 529.633C973.367 536.873 962.642 551.466 960.77 551.92C950.034 552.281 944.12 564.165 942.504 570.062C942.096 572.029 943.392 574.565 951.848 568.976C949.391 581.251 947.602 585.096 947.015 585.484L955.763 585.575C957.549 582.046 965.322 574.794 982.129 574.023C992.851 575.08 1001.73 577.381 1004.83 578.399C1006.43 574.473 1012.42 566.414 1023.63 565.584C1037.64 564.784 1064.11 561.275 1075.6 559.621C1077.81 553.336 1081.98 540.054 1081.08 537.206C1090.5 528.788 1097.11 528.305 1099.24 529.116L1110.7 492.57L1124.22 482.067L1124.14 489.754L1131.72 489.833L1150.16 455.134L1147.92 445.649L1140.35 444.387L1140.46 433.744L1130.6 427.728L1136.46 425.423L1147.92 411.664L1282.75 411.664" stroke="#1E1E1E" stroke-opacity="0.55"/>
<path d="M661.5 216.3C660.695 216.3 659.923 215.931 659.353 215.275C658.784 214.618 658.464 213.728 658.464 212.8C658.464 211.872 658.784 210.982 659.353 210.325C659.923 209.669 660.695 209.3 661.5 209.3C662.305 209.3 663.077 209.669 663.647 210.325C664.216 210.982 664.536 211.872 664.536 212.8C664.536 213.26 664.457 213.715 664.305 214.139C664.152 214.564 663.928 214.95 663.647 215.275C663.365 215.6 663.03 215.858 662.662 216.034C662.293 216.209 661.899 216.3 661.5 216.3ZM661.5 203C659.246 203 657.084 204.032 655.49 205.87C653.896 207.708 653 210.201 653 212.8C653 220.15 661.5 231 661.5 231C661.5 231 670 220.15 670 212.8C670 210.201 669.104 207.708 667.51 205.87C665.916 204.032 663.754 203 661.5 203Z" fill="#E74C3C"/>
<path d="M680 248.575C678.958 248.575 677.959 248.088 677.222 247.22C676.485 246.353 676.071 245.177 676.071 243.95C676.071 242.723 676.485 241.547 677.222 240.68C677.959 239.812 678.958 239.325 680 239.325C681.042 239.325 682.041 239.812 682.778 240.68C683.515 241.547 683.929 242.723 683.929 243.95C683.929 244.557 683.827 245.159 683.63 245.72C683.432 246.281 683.143 246.791 682.778 247.22C682.413 247.65 681.98 247.991 681.503 248.223C681.027 248.455 680.516 248.575 680 248.575ZM680 231C677.083 231 674.285 232.364 672.222 234.793C670.159 237.222 669 240.515 669 243.95C669 253.663 680 268 680 268C680 268 691 253.663 691 243.95C691 240.515 689.841 237.222 687.778 234.793C685.715 232.364 682.917 231 680 231Z" fill="#E74C3C"/>
<path d="M634.5 202.25C633.6 202.25 632.737 201.855 632.101 201.152C631.465 200.448 631.107 199.495 631.107 198.5C631.107 197.505 631.465 196.552 632.101 195.848C632.737 195.145 633.6 194.75 634.5 194.75C635.4 194.75 636.263 195.145 636.899 195.848C637.535 196.552 637.893 197.505 637.893 198.5C637.893 198.992 637.805 199.48 637.635 199.935C637.464 200.39 637.214 200.803 636.899 201.152C636.584 201.5 636.21 201.776 635.798 201.965C635.387 202.153 634.946 202.25 634.5 202.25ZM634.5 188C631.98 188 629.564 189.106 627.782 191.075C626.001 193.045 625 195.715 625 198.5C625 206.375 634.5 218 634.5 218C634.5 218 644 206.375 644 198.5C644 195.715 642.999 193.045 641.218 191.075C639.436 189.106 637.02 188 634.5 188Z" fill="#E74C3C"/>
</svg>
