<svg width="1280" height="589" viewBox="0 0 1280 589" fill="none" xmlns="http://www.w3.org/2000/svg">
<path d="M1.25049 156.084L38.1552 124.25L55.1291 118.513L60.51 105.559C74.5896 97.6235 102.78 78.6781 102.905 66.379C103.029 54.08 112.721 57.0194 117.551 60.0266L137.262 72.0591L167.944 37.4881L182.007 31.1296C180.688 26.9763 179.936 16.797 187.478 9.3061C203.342 9.47129 199.42 20.4692 195.476 25.9476C199.695 31.708 214.429 43.6493 239.61 45.3308C249.014 38.3323 265.273 45.598 269.975 42.0988C273.736 39.2994 276.276 34.2795 277.075 32.1195C273.199 30.8964 267.787 27.765 277.147 25.0239C287.422 24.1847 282.671 17.1966 279.011 13.8074C283.294 13.2607 292.797 11.8221 296.544 10.4418C300.291 9.06156 312.492 10.0165 318.124 10.6665C323.443 3.82267 336.897 5.37102 345.315 3.56631C354.647 3.66349 379.314 29.937 376.835 10.4418L399.086 22.1541C406.672 21.8389 422.434 20.6232 424.79 18.2823C427.147 15.9413 430.799 20.1189 432.331 22.5003L422.885 33.6379L426.794 50.8281L436.198 43.8297L436.06 57.4296L450.058 57.5753C448.095 59.329 444.739 64.3798 447.01 70.5536C442.305 74.2893 443.835 76.8284 445.188 77.631L455.055 82.4646C456.565 87.0142 459.09 98.71 457.118 109.097C466.374 116.763 476.865 117.582 480.953 117.033L508.847 127.377L520.362 142.281L530.253 144.749L530.085 161.306L520.086 169.481L521.692 183.69L541.938 200.459L573.379 206.109L586.097 217.477L590.047 230.528L616.209 239.08L620.226 245.627L639.701 223.358L668.443 265.052L646.588 292.028L648.747 309.2L644.033 313.881L643.937 323.342L626.945 330.853L615.035 354.975L606.846 357.255L599.757 366.052L606.72 369.672C600.876 370.794 588.702 374.807 586.764 381.883C584.826 388.959 582.365 393.862 581.377 395.429C581.861 405.29 583.866 426.087 588.023 430.388C592.179 434.689 595.531 437.76 596.687 438.758C603.325 436.067 616.98 427.851 618.495 416.513C615.277 411.748 616.035 409.785 616.817 409.399L622.649 409.46C621.255 412.796 619.979 419.722 626.035 420.731C637.391 405.237 640.988 403.343 641.367 404.332L659.605 446.509L679.214 468.594L689.712 468.703L689.844 455.694L681.341 431.36C691.507 445.067 711.238 474.249 708.833 481.321C748.517 479.369 759.505 488.748 760.038 493.681C763.522 495.294 770.453 502.069 770.309 516.26C780.218 505.482 784.547 511.874 785.473 516.418L791.985 507.024L790.367 493.997L797.282 502.348L801.696 527.231C808.655 531.246 823.605 541.061 827.732 548.2C825.057 535.872 824.841 526.487 825.068 523.335C821.702 510.093 813.699 482.413 808.615 477.629C811.982 467.729 810.11 464.437 808.753 464.029L791.267 462.664C785.665 459.058 774.951 449.603 776.908 440.634C775.975 440.624 757.214 427.025 747.95 420.226L734.907 383.426L733.63 336.695L742.417 390.6C748.53 401.309 762.384 423.333 768.893 425.767C775.401 428.2 783.217 432.027 786.312 433.636L790.834 447.876L806.581 448.039L811.319 440.992L811.403 432.714L777.561 376.182L777.927 340.113C776.221 335.759 773.864 326.588 778.082 324.739C771.651 314.737 768.499 311.038 767.728 310.439L784.929 282.232L774.431 282.123C776.221 278.199 778.408 269.509 772.843 266.14C797.572 266.397 783.263 254.815 773.017 248.992L771.345 241.287L778.927 241.366L793.376 254.526L791.758 241.499C786.404 232.573 773.834 214.347 766.383 212.85C772.083 202.974 773.452 206.024 773.424 208.783L791.896 227.899L808.894 219.797C802.542 213.423 787.741 200.417 779.352 199.383C782.233 191.371 784.846 194.512 785.792 197.085C789.275 198.698 796.714 201.456 798.599 199.584C800.485 197.711 801.293 202.371 801.461 204.936C802.696 198.247 802.623 182.358 792.459 172.317C784.527 172.235 780.612 171.011 779.646 170.41L773.957 156.158L764.667 151.921L757.758 142.979L751.956 139.962C757.63 136.473 773.006 134.859 789.121 156.316C808.285 153.203 812.715 149.662 812.535 148.28L789.433 125.568L799.306 129.81L807.965 138.771L812.631 138.819C810.324 136.233 805.381 128.927 804.068 120.398C814.314 122.397 817.669 121.328 818.066 120.544L818.108 116.405L828.07 111.777L820.013 101.049L810.134 97.398C816.577 94.7054 830.386 90.5125 834.071 95.2818C837.578 117.554 840.784 123.54 841.948 123.749L848.466 113.764L845.128 97.7624C844.625 89.8723 845.487 73.8751 852.962 73.0067C860.437 72.1384 857.464 89.2175 855.043 97.8657L860.226 104.425C870.983 98.2288 893.218 83.7156 896.104 75.2301C887.349 64.2578 885.997 55.6098 886.416 52.6574L889.987 45.5982L916.287 40.5498L932.75 27.7112C930.718 36.3634 924.542 54.8285 916.095 59.4714C915.98 70.8244 919.09 70.9356 920.66 69.5721L957.18 34.4706L944.073 61.5369L956.76 75.8617L935.24 69.724C927.029 74.1722 910.71 84.3709 911.124 89.5792C911.538 94.7875 915.514 97.7069 917.45 98.5155L947.195 98.8253L956.461 105.427L885.865 107.057C883.099 111.365 875.81 120.79 868.777 124.029C867.291 132.529 863.357 140.925 861.575 144.06L844.307 178.771C847.594 180.579 854.157 185.378 854.109 190.109C854.061 194.839 855.075 209.831 855.589 216.735L863.261 207.945L868.148 186.115L875.76 183.238L872.796 187.938L885.044 188.065L895.049 179.299L879.669 200.428L879.591 208.115L870.224 211.565C872.511 216.123 876.148 225.583 872.401 226.964C868.654 228.344 859.52 231.758 855.421 233.292L832.807 220.046C825.888 231.21 814.227 257.582 822.93 273.758C827.629 270.495 827.293 265.327 826.537 263.151L848.892 244.46L851.249 242.119L862.848 248.745L862.716 261.753L867.364 263.576L869.78 255.322L874.994 258.924L874.91 267.202L884.212 270.256L871.892 277.224L865.338 290.757L871.676 298.511L882.252 290.933L878.597 306.271L862.29 303.736C859.795 300.556 854.811 293.486 854.84 290.648C854.869 287.81 847.147 282.289 843.283 279.883C835.663 283.549 821.504 299.29 825.83 332.924C834.305 325.443 833.365 318.416 831.836 315.837L839.568 301.133L839.394 318.281L852.935 306.004L858.13 311.38L854.558 318.439L859.67 332.094L869.098 322.73L868.99 333.373L881.821 333.507L871.203 345.224L879.915 348.863L887.534 345.394L890.342 356.068L902.536 361.517L914.838 356.323L919.612 345.728L922.528 345.758L917.069 366.399L893.12 369.698L873.957 361.219L864.643 359.348L839.017 355.533L842.414 365.622L840.533 378.612L852.234 375.186L857.543 369.327L866.231 375.332C863.105 376.876 857.78 380.448 861.494 382.379C865.207 384.31 856.776 387.455 852.096 388.786L840.251 406.403L832.741 399.229L828.587 406.282L834.365 411.664C838.913 423.342 849.742 448.371 856.674 455.066C852.623 440.358 855.126 435.141 856.884 434.371C863.612 441.931 877.404 458.594 878.741 464.758C884.793 466.24 895.113 480.107 899.516 486.855C903.26 481.965 908.898 470.512 901.5 463.812C915.223 445.031 920.585 441.539 921.551 442.14L921.432 453.966L912.058 458.008C915.497 463.958 921.9 476.798 919.996 480.563C928.119 461.724 936.058 449.585 939.013 445.87C942.175 440.778 948.617 430.595 949.083 430.6C949.667 430.606 957.928 421.23 936.404 473.046C953.086 484.574 956.467 488.63 956.073 489.218C946.324 491.876 926.925 498.967 927.32 506.068C926.296 515.046 929.126 519.688 930.67 520.887L935.979 515.028L959.904 514.095L965.694 518.295C959.062 520.394 946.708 526.849 950.35 535.876C962.481 536.002 972.168 531.766 975.495 529.633C970.367 536.873 959.642 551.466 957.77 551.92C947.034 552.281 941.12 564.165 939.504 570.062C939.096 572.029 940.392 574.565 948.848 568.976C946.391 581.251 944.602 585.096 944.015 585.484L952.763 585.575C954.549 582.046 962.322 574.794 979.129 574.023C989.851 575.08 998.732 577.381 1001.83 578.399C1003.43 574.473 1009.42 566.414 1020.63 565.584C1034.64 564.784 1061.11 561.275 1072.6 559.621C1074.81 553.336 1078.98 540.054 1078.08 537.206C1087.5 528.788 1094.11 528.305 1096.24 529.116L1107.7 492.57L1121.22 482.067L1121.14 489.754L1128.72 489.833L1147.16 455.134L1144.92 445.649L1137.35 444.387L1137.46 433.744L1127.6 427.728L1133.46 425.423L1144.92 411.664L1279.75 411.664" stroke="#1E1E1E" stroke-opacity="0.75"/>
<path d="M658 216.825C657.242 216.825 656.516 216.469 655.98 215.836C655.444 215.204 655.143 214.345 655.143 213.45C655.143 212.555 655.444 211.696 655.98 211.064C656.516 210.431 657.242 210.075 658 210.075C658.758 210.075 659.484 210.431 660.02 211.064C660.556 211.696 660.857 212.555 660.857 213.45C660.857 213.893 660.783 214.332 660.64 214.742C660.496 215.151 660.286 215.523 660.02 215.836C659.755 216.15 659.44 216.398 659.093 216.568C658.747 216.738 658.375 216.825 658 216.825ZM658 204C655.878 204 653.843 204.996 652.343 206.768C650.843 208.54 650 210.944 650 213.45C650 220.538 658 231 658 231C658 231 666 220.538 666 213.45C666 210.944 665.157 208.54 663.657 206.768C662.157 204.996 660.122 204 658 204Z" fill="#E74C3C"/>
<path d="M667.5 240.875C666.79 240.875 666.108 240.546 665.606 239.96C665.104 239.374 664.821 238.579 664.821 237.75C664.821 236.921 665.104 236.126 665.606 235.54C666.108 234.954 666.79 234.625 667.5 234.625C668.21 234.625 668.892 234.954 669.394 235.54C669.896 236.126 670.179 236.921 670.179 237.75C670.179 238.16 670.109 238.567 669.975 238.946C669.84 239.325 669.643 239.67 669.394 239.96C669.145 240.25 668.85 240.48 668.525 240.637C668.2 240.794 667.852 240.875 667.5 240.875ZM667.5 229C665.511 229 663.603 229.922 662.197 231.563C660.79 233.204 660 235.429 660 237.75C660 244.312 667.5 254 667.5 254C667.5 254 675 244.312 675 237.75C675 235.429 674.21 233.204 672.803 231.563C671.397 229.922 669.489 229 667.5 229Z" fill="#E74C3C"/>
<path d="M631 203.3C630.148 203.3 629.33 202.931 628.727 202.275C628.124 201.618 627.786 200.728 627.786 199.8C627.786 198.872 628.124 197.982 628.727 197.325C629.33 196.669 630.148 196.3 631 196.3C631.852 196.3 632.67 196.669 633.273 197.325C633.876 197.982 634.214 198.872 634.214 199.8C634.214 200.26 634.131 200.715 633.97 201.139C633.808 201.564 633.571 201.95 633.273 202.275C632.974 202.6 632.62 202.858 632.23 203.034C631.84 203.209 631.422 203.3 631 203.3ZM631 190C628.613 190 626.324 191.032 624.636 192.87C622.948 194.708 622 197.201 622 199.8C622 207.15 631 218 631 218C631 218 640 207.15 640 199.8C640 197.201 639.052 194.708 637.364 192.87C635.676 191.032 633.387 190 631 190Z" fill="#E74C3C"/>
</svg>
