<svg width="50" height="62" viewBox="0 0 50 62" fill="none" xmlns="http://www.w3.org/2000/svg">
<path d="M49 61V46C49 40.342 49 37.516 47.242 35.758C45.484 34 42.658 34 37 34L25 61L13 34C7.342 34 4.516 34 2.758 35.758C1 37.516 1 40.342 1 46V61" stroke="white" stroke-linecap="round" stroke-linejoin="round"/>
<path d="M25 40L23.5 52L25 56.5L26.5 52L25 40ZM25 40L22 34H28L25 40ZM35.5 14.5V11.5C35.5 10.1211 35.2284 8.75574 34.7007 7.48182C34.1731 6.2079 33.3996 5.05039 32.4246 4.07538C31.4496 3.10036 30.2921 2.32694 29.0182 1.79927C27.7443 1.27159 26.3789 1 25 1C23.6211 1 22.2557 1.27159 20.9818 1.79927C19.7079 2.32694 18.5504 3.10036 17.5754 4.07538C16.6004 5.05039 15.8269 6.2079 15.2993 7.48182C14.7716 8.75574 14.5 10.1211 14.5 11.5V14.5C14.5 15.8789 14.7716 17.2443 15.2993 18.5182C15.8269 19.7921 16.6004 20.9496 17.5754 21.9246C18.5504 22.8996 19.7079 23.6731 20.9818 24.2007C22.2557 24.7284 23.6211 25 25 25C26.3789 25 27.7443 24.7284 29.0182 24.2007C30.2921 23.6731 31.4496 22.8996 32.4246 21.9246C33.3996 20.9496 34.1731 19.7921 34.7007 18.5182C35.2284 17.2443 35.5 15.8789 35.5 14.5Z" stroke="white" stroke-linecap="round" stroke-linejoin="round"/>
</svg>
