<svg width="48" height="60" viewBox="0 0 48 60" fill="none" xmlns="http://www.w3.org/2000/svg">
<path d="M48 60V45C48 39.342 48 36.516 46.242 34.758C44.484 33 41.658 33 36 33L24 60L12 33C6.342 33 3.516 33 1.758 34.758C-1.78814e-07 36.516 0 39.342 0 45V60" fill="#F1C40F"/>
<path d="M24 39L22.5 51L24 55.5L25.5 51L24 39ZM24 39L21 33H27L24 39ZM34.5 13.5V10.5C34.5 9.12112 34.2284 7.75574 33.7007 6.48182C33.1731 5.2079 32.3996 4.05039 31.4246 3.07538C30.4496 2.10036 29.2921 1.32694 28.0182 0.799265C26.7443 0.271591 25.3789 0 24 0C22.6211 0 21.2557 0.271591 19.9818 0.799265C18.7079 1.32694 17.5504 2.10036 16.5754 3.07538C15.6004 4.05039 14.8269 5.2079 14.2993 6.48182C13.7716 7.75574 13.5 9.12112 13.5 10.5V13.5C13.5 14.8789 13.7716 16.2443 14.2993 17.5182C14.8269 18.7921 15.6004 19.9496 16.5754 20.9246C17.5504 21.8996 18.7079 22.6731 19.9818 23.2007C21.2557 23.7284 22.6211 24 24 24C25.3789 24 26.7443 23.7284 28.0182 23.2007C29.2921 22.6731 30.4496 21.8996 31.4246 20.9246C32.3996 19.9496 33.1731 18.7921 33.7007 17.5182C34.2284 16.2443 34.5 14.8789 34.5 13.5Z" fill="#F1C40F"/>
</svg>
