<svg width="106" height="82" viewBox="0 0 106 82" fill="none" xmlns="http://www.w3.org/2000/svg">
<path d="M0 81.171V76.3962C0 67.5318 3.52138 59.0305 9.78947 52.7624C16.0576 46.4943 24.5589 42.9729 33.4233 42.9729C42.2878 42.9729 50.7891 46.4943 57.0572 52.7624C63.3253 59.0305 66.8467 67.5318 66.8467 76.3962V81.171" fill="#FFF"/>
<path d="M57.9438 53.857C57.5853 47.5354 59.7528 41.3304 63.9693 36.6069C68.1859 31.8833 74.1061 29.0283 80.4277 28.6698C83.5578 28.4923 86.6922 28.9331 89.652 29.9669C92.6118 31.0008 95.339 32.6075 97.6778 34.6953C100.017 36.7831 101.921 39.3112 103.283 42.1351C104.645 44.9591 105.437 48.0236 105.615 51.1537L105.75 53.5372" fill="#FFF"/>
<path d="M33.4234 42.9729C38.4888 42.9729 43.3467 40.9606 46.9285 37.3789C50.5102 33.7971 52.5224 28.9392 52.5224 23.8738C52.5224 18.8084 50.5102 13.9505 46.9285 10.3687C43.3467 6.78698 38.4888 4.77476 33.4234 4.77476C28.358 4.77476 23.5001 6.78698 19.9183 10.3687C16.3366 13.9505 14.3243 18.8084 14.3243 23.8738C14.3243 28.9392 16.3366 33.7971 19.9183 37.3789C23.5001 40.9606 28.358 42.9729 33.4234 42.9729ZM81.171 28.6486C84.97 28.6486 88.6135 27.1394 91.2998 24.4531C93.9861 21.7668 95.4953 18.1233 95.4953 14.3243C95.4953 10.5253 93.9861 6.88181 91.2998 4.19549C88.6135 1.50916 84.97 0 81.171 0C77.372 0 73.7285 1.50916 71.0422 4.19549C68.3559 6.88181 66.8467 10.5253 66.8467 14.3243C66.8467 18.1233 68.3559 21.7668 71.0422 24.4531C73.7285 27.1394 77.372 28.6486 81.171 28.6486Z" fill="#FFF"/>
</svg>
