<svg width="16" height="14" viewBox="0 0 16 14" fill="none" xmlns="http://www.w3.org/2000/svg">
<path d="M15.9907 10.5756C15.848 11.5241 15.3157 12.3948 14.493 13.0249C13.6703 13.6551 12.6136 14.0017 11.5202 14C5.1681 14 7.23904e-06 9.47795 7.23904e-06 3.9199C-0.00195278 2.96319 0.394164 2.03857 1.11437 1.31874C1.83458 0.598902 2.82963 0.133074 3.91367 0.00825843C4.1878 -0.0210292 4.4654 0.028042 4.70504 0.148147C4.94467 0.268251 5.13349 0.452948 5.2433 0.674665L6.93293 3.9752V3.9836C7.017 4.15332 7.05172 4.33861 7.03399 4.52294C7.01626 4.70726 6.94663 4.88487 6.83133 5.03991C6.81692 5.05881 6.80172 5.07631 6.78572 5.09381L5.1201 6.82142C5.71931 7.88683 6.99293 8.99145 8.22655 9.51715L10.1738 8.06744C10.1929 8.05336 10.2129 8.04027 10.2338 8.02824C10.4108 7.92492 10.6145 7.86185 10.8264 7.84474C11.0383 7.82763 11.2517 7.85701 11.4474 7.93023L11.4578 7.93444L15.2267 9.41215C15.4805 9.50789 15.6921 9.67296 15.8298 9.88267C15.9675 10.0924 16.024 10.3355 15.9907 10.5756Z" fill="#E74C3C"/>
</svg>
