<svg width="30" height="30" viewBox="0 0 30 30" fill="none" xmlns="http://www.w3.org/2000/svg">
<path fill-rule="evenodd" clip-rule="evenodd" d="M15 30C23.2843 30 30 23.2842 30 15C30 6.71582 23.2843 0 15 0C6.71573 0 0 6.71582 0 15C0 23.2842 6.71573 30 15 30ZM10.4067 16.668L6.16429 18.5664C5.95127 18.6587 5.77385 18.8174 5.65842 19.019C5.543 19.2207 5.49574 19.4541 5.5237 19.6846C5.67277 20.8154 6.22831 21.853 7.08656 22.604C7.94482 23.355 9.04709 23.7676 10.1875 23.7656C17.1234 23.7656 22.7656 18.123 22.7656 11.1875C22.768 10.0469 22.3551 8.94482 21.6042 8.08643C20.8532 7.22803 19.8155 6.67236 18.6849 6.52344C18.4533 6.49512 18.2188 6.54297 18.0166 6.65967C17.8144 6.77588 17.6555 6.95508 17.5637 7.16943L15.6617 11.4048C15.5908 11.5688 15.5619 11.748 15.5776 11.9263C15.5933 12.1045 15.6531 12.2759 15.7515 12.4253C15.7596 12.437 15.7677 12.4487 15.7767 12.4595L17.6814 14.7246C17.7112 14.7739 17.7284 14.8301 17.7312 14.8882C17.734 14.9458 17.7224 15.0039 17.6975 15.0562C16.9932 16.498 15.4829 17.9966 14.0238 18.7012C13.9711 18.7256 13.9132 18.7363 13.8552 18.7329C13.7973 18.73 13.741 18.7124 13.6914 18.6821L11.4633 16.7827L11.4488 16.7715L11.4372 16.7632L11.4291 16.7578C11.2796 16.6587 11.1078 16.5991 10.9293 16.583C10.7508 16.5674 10.5712 16.5967 10.4067 16.668Z" fill="#F1C40F"/>
</svg>
