<svg width="63" height="65" viewBox="0 0 63 65" fill="none" xmlns="http://www.w3.org/2000/svg">
<path d="M24.4289 38.9519C26.3043 37.0765 28.8478 36.0229 31.5 36.0229C34.1522 36.0229 36.6957 37.0765 38.5711 38.9519C40.4464 40.8272 41.5 43.3708 41.5 46.0229C41.5 48.6751 40.4464 51.2187 38.5711 53.094C36.6957 54.9694 34.1522 56.0229 31.5 56.0229C28.8478 56.0229 26.3043 54.9694 24.4289 53.094C22.5536 51.2187 21.5 48.6751 21.5 46.0229C21.5 43.3708 22.5536 40.8272 24.4289 38.9519ZM27.9645 42.4874C27.0268 43.4251 26.5 44.6969 26.5 46.0229C26.5 47.349 27.0268 48.6208 27.9645 49.5585C28.9021 50.4962 30.1739 51.0229 31.5 51.0229C32.8261 51.0229 34.0979 50.4962 35.0355 49.5585C35.9732 48.6208 36.5 47.349 36.5 46.0229C36.5 44.6969 35.9732 43.4251 35.0355 42.4874C34.0979 41.5497 32.8261 41.0229 31.5 41.0229C30.1739 41.0229 28.9021 41.5497 27.9645 42.4874Z" stroke="white"/>
<path d="M47.6709 13.6613L47.887 13.9643L48.2393 13.8443L54.0605 11.8604L59.6409 28.1847L59.7565 28.523H60.114H62.5V63.523H0.5V28.523H1.53H2.03V28.4984L3.4686 28.514L3.64682 28.5159L3.78608 28.4046L38.4405 0.720209L47.6709 13.6613ZM53.775 28.523H54.4744L54.2481 27.8612L51.1371 18.7622L50.9785 18.2984L50.5116 18.4478L45.9456 19.9088L45.9456 19.9087L45.9367 19.9117L23.5297 27.5497L23.691 28.523H53.775ZM42.3113 15.8663L42.947 15.6496L42.5571 15.1028L37.7451 8.35276L37.4386 7.9227L37.0259 8.25235L18.7079 22.8864L19.1813 23.7503L42.3113 15.8663ZM5.5 52.53V52.8834L5.83309 53.0013C7.03013 53.4252 8.11742 54.111 9.0156 55.0087C9.91379 55.9064 10.6002 56.9934 11.0248 58.1902L11.1428 58.523H11.496H51.51H51.8637L51.9815 58.1895C52.4039 56.993 53.0889 55.9063 53.9861 55.0091C54.8833 54.1119 55.97 53.4269 57.1665 53.0045L57.5 52.8867V52.533V39.513V39.1593L57.1665 39.0415C55.97 38.6191 54.8833 37.9341 53.9861 37.0369C53.0889 36.1397 52.4039 35.053 51.9815 33.8565L51.8637 33.523H51.51H11.49H11.1364L11.0186 33.8563C10.5958 35.0523 9.91066 36.1384 9.01346 37.0351C8.11627 37.9318 7.02976 38.6163 5.83359 39.0385L5.5 39.1562V39.51V52.53Z" stroke="white"/>
</svg>
