<svg width="64" height="65" viewBox="0 0 64 65" fill="none" xmlns="http://www.w3.org/2000/svg">
<path d="M32 36.5C29.2152 36.5 26.5445 37.6062 24.5754 39.5754C22.6062 41.5445 21.5 44.2152 21.5 47C21.5 49.7848 22.6062 52.4555 24.5754 54.4246C26.5445 56.3938 29.2152 57.5 32 57.5C34.7848 57.5 37.4555 56.3938 39.4246 54.4246C41.3938 52.4555 42.5 49.7848 42.5 47C42.5 44.2152 41.3938 41.5445 39.4246 39.5754C37.4555 37.6062 34.7848 36.5 32 36.5ZM27.5 47C27.5 45.8065 27.9741 44.6619 28.818 43.818C29.6619 42.9741 30.8065 42.5 32 42.5C33.1935 42.5 34.3381 42.9741 35.182 43.818C36.0259 44.6619 36.5 45.8065 36.5 47C36.5 48.1935 36.0259 49.3381 35.182 50.182C34.3381 51.0259 33.1935 51.5 32 51.5C30.8065 51.5 29.6619 51.0259 28.818 50.182C27.9741 49.3381 27.5 48.1935 27.5 47Z" fill="#F1C40F"/>
<path d="M48.578 14.3481L39.041 0.977051L3.974 28.991L2.03 28.97V29H0.5V65H63.5V29H60.614L54.872 12.2031L48.578 14.3481ZM54.275 29H24.191L46.598 21.362L51.164 19.901L54.275 29ZM42.65 16.37L19.52 24.254L37.838 9.62005L42.65 16.37ZM6.5 53.507V40.487C7.76653 40.0401 8.91695 39.3153 9.86692 38.3658C10.8169 37.4164 11.5423 36.2663 11.99 35H52.01C52.4573 36.2669 53.1826 37.4175 54.1326 38.3675C55.0825 39.3175 56.2332 40.0427 57.5 40.49V53.51C56.2332 53.9574 55.0825 54.6826 54.1326 55.6326C53.1826 56.5826 52.4573 57.7332 52.01 59H11.996C11.5466 57.7331 10.8199 56.5825 9.86906 55.6321C8.91822 54.6818 7.7672 53.9558 6.5 53.507Z" fill="#F1C40F"/>
</svg>
