<svg width="52" height="52" viewBox="0 0 52 52" fill="none" xmlns="http://www.w3.org/2000/svg">
<path d="M36.3332 17.3332V17.8332H36.8332H43.3332C45.4404 17.8332 47.1666 19.5593 47.1666 21.6665V29.8332H39.4999V28.1665C39.4999 26.6987 38.3011 25.4998 36.8332 25.4998C35.3654 25.4998 34.1666 26.6987 34.1666 28.1665V29.8332H17.8333V28.1665C17.8333 26.6987 16.6344 25.4998 15.1666 25.4998C13.6988 25.4998 12.4999 26.6987 12.4999 28.1665V29.8332H4.83325V21.6665C4.83325 19.5593 6.55939 17.8332 8.66658 17.8332H15.1666H15.6666V17.3332V12.9998C15.6666 10.8926 17.3927 9.1665 19.4999 9.1665H32.4999C34.6071 9.1665 36.3332 10.8926 36.3332 12.9998V17.3332ZM32.4999 17.8332H32.9999V17.3332V12.9998V12.4998H32.4999H19.4999H18.9999V12.9998V17.3332V17.8332H19.4999H32.4999ZM15.1666 35.1665C16.4636 35.1665 17.5506 34.2304 17.786 32.9998H34.2138C34.4492 34.2304 35.5362 35.1665 36.8332 35.1665C38.1303 35.1665 39.2173 34.2304 39.4527 32.9998H47.1666V38.9998C47.1666 41.107 45.4404 42.8332 43.3332 42.8332H8.66658C6.55939 42.8332 4.83325 41.107 4.83325 38.9998V32.9998H12.5472C12.7826 34.2304 13.8696 35.1665 15.1666 35.1665Z" stroke="white"/>
</svg>
