<svg width="57" height="57" viewBox="0 0 57 57" fill="none" xmlns="http://www.w3.org/2000/svg">
<path d="M56.0525 51.8225L35.5976 31.0858L30.4375 34.9557L51.8225 56.0525C52.3834 56.6134 53.1442 56.9285 53.9375 56.9285C54.7307 56.9285 55.4915 56.6134 56.0525 56.0525C56.6134 55.4915 56.9285 54.7308 56.9285 53.9375C56.9285 53.1442 56.6134 52.3834 56.0525 51.8225Z" fill="#F1C40F"/>
<path d="M31.8363 27.2728L26.8843 31.4503L30.4375 34.9557L35.5976 31.0858L31.8363 27.2728Z" fill="#F1C40F"/>
<path d="M8.97347 19.2965L11.75 16.52L26.8843 31.4503L31.8363 27.2728L16.5245 11.75L19.2965 8.97347L15.872 6.69197L9.12197 2.19197L6.81797 0.657471L4.86497 2.61497L2.61497 4.86497L0.657471 6.81797L2.19197 9.12197L6.69197 15.872L8.97347 19.2965Z" fill="#F1C40F"/>
<path d="M5.56247 49.4375L9 53.5L30.4375 34.9557L26.8843 31.4503L5.56247 49.4375Z" fill="#F1C40F"/>
<path d="M46.625 7.24997C45.0432 7.24917 43.4832 7.61899 42.07 8.32979C40.6569 9.04059 39.43 10.0726 38.4877 11.3431C37.5453 12.6135 36.9137 14.0871 36.6436 15.6457C36.3734 17.2043 36.4722 18.8045 36.932 20.318L37.517 22.253L36.0905 23.684L31.8363 27.2728L35.5976 31.0858L41.747 26.474L43.682 27.059C45.562 27.6316 47.568 27.6448 49.4554 27.0968C51.3427 26.5488 53.0298 25.4634 54.3108 23.9729C55.5918 22.4825 56.4114 20.6514 56.6695 18.7031C56.9276 16.7549 56.6132 14.7736 55.7645 13.001L49.0145 19.7555C48.7033 20.078 48.331 20.3353 47.9193 20.5123C47.5076 20.6894 47.0648 20.7827 46.6167 20.7868C46.1686 20.7909 45.7241 20.7057 45.3092 20.5362C44.8944 20.3667 44.5175 20.1163 44.2004 19.7996C43.8834 19.4828 43.6326 19.1061 43.4627 18.6914C43.2928 18.2767 43.2072 17.8324 43.2109 17.3842C43.2146 16.9361 43.3075 16.4932 43.4841 16.0813C43.6608 15.6695 43.9178 15.297 44.24 14.9855L50.99 8.23547C49.6275 7.58253 48.1358 7.24868 46.625 7.24997Z" fill="#F1C40F"/>
</svg>
