<svg width="57" height="57" viewBox="0 0 57 57" fill="none" xmlns="http://www.w3.org/2000/svg">
<path d="M36.7531 19.5158L36.7529 19.5152C36.3158 18.0764 36.2219 16.5552 36.4788 15.0736C36.7356 13.592 37.336 12.1912 38.2318 10.9835C39.1276 9.77574 40.2939 8.7947 41.6373 8.119C42.9806 7.4433 44.4635 7.09174 45.9672 7.0925L45.9679 7.0925C47.1652 7.09148 48.3492 7.31176 49.4594 7.74403L43.2318 13.9716C42.8633 14.3286 42.5695 14.7552 42.3672 15.2267C42.1643 15.6996 42.0577 16.2081 42.0534 16.7226C42.0492 17.2372 42.1475 17.7474 42.3426 18.2235C42.5376 18.6996 42.8256 19.1322 43.1896 19.4958C43.5536 19.8595 43.9864 20.147 44.4627 20.3416C44.939 20.5362 45.4493 20.634 45.9638 20.6293C46.4783 20.6246 46.9867 20.5175 47.4594 20.3142C47.9307 20.1115 48.357 19.8172 48.7136 19.4485L54.9412 13.2168C55.5305 14.7269 55.7303 16.3654 55.5164 17.98C55.271 19.8321 54.4919 21.5727 53.2742 22.9895C52.0564 24.4064 50.4527 25.4382 48.6585 25.9591C46.8643 26.4801 44.9574 26.4676 43.1702 25.9232L43.1692 25.9229L41.2342 25.3379L40.9711 25.2584L40.7629 25.4379L34.1734 31.1214L33.7532 31.4838L34.1573 31.8641L55.0466 51.5237C55.5105 51.9904 55.7711 52.6218 55.7711 53.28C55.7711 53.9407 55.5086 54.5743 55.0414 55.0415C54.5743 55.5086 53.9407 55.7711 53.28 55.7711C52.6197 55.7711 51.9864 55.5089 51.5194 55.0423C51.5191 55.042 51.5188 55.0417 51.5185 55.0415L30.3555 33.6484L30.0256 33.315L29.6718 33.6228L8.39678 52.1326L5.61014 48.8393L26.5492 31.175L26.968 30.8217L26.578 30.4369L11.4436 15.5066L11.0901 15.1578L10.7389 15.5089L8.39384 17.8541L6.45061 14.9373L6.45052 14.9372L1.95065 8.18734L1.95053 8.18715L0.643531 6.22474L2.31065 4.56146L2.31105 4.56105L4.56105 2.31105L4.56146 2.31065L6.22474 0.643531L8.18715 1.95053L8.18734 1.95065L14.9371 6.45053L14.9373 6.45061L17.8545 8.39412L15.5132 10.7392L15.1626 11.0903L15.511 11.4436L30.644 26.7904L30.9545 27.1053L31.305 26.8355L35.738 23.4227L35.764 23.4027L35.7871 23.3795L37.2136 21.9485L37.4246 21.7369L37.3381 21.4508L36.7531 19.5158Z" stroke="white"/>
</svg>
