<svg width="66" height="52" viewBox="0 0 66 52" fill="none" xmlns="http://www.w3.org/2000/svg">
<path d="M65.625 39.0471H55.7475L53.6241 51.3434L46.7644 39.0471H20.7656V32.0159H47.4844V9.93774H65.625V39.0471ZM45.2344 0.656494V29.7659H19.237L12.3759 42.0663L10.2511 29.7659H0.375V0.656494H45.2344ZM16.2268 20.2799C16.2268 18.8541 14.5032 18.1404 13.4952 19.1484C12.4872 20.1564 13.2008 21.8802 14.6266 21.8802C15.5105 21.8802 16.227 21.1637 16.227 20.2799H16.2268ZM24.7972 20.2799C24.7876 18.8567 23.0647 18.1533 22.0618 19.1629C21.059 20.1726 21.7739 21.8909 23.197 21.8909C24.0849 21.8909 24.8031 21.1679 24.7972 20.2799ZM33.3676 20.2799C33.3676 18.8541 31.644 18.1404 30.636 19.1484C29.628 20.1564 30.3416 21.8802 31.7674 21.8802C32.6511 21.8802 33.3676 21.1637 33.3676 20.2799Z" fill="#F1C40F"/>
</svg>
