<svg width="48" height="38" viewBox="0 0 48 38" fill="none" xmlns="http://www.w3.org/2000/svg">
<path d="M39.936 28.3378L38.643 35.8252L34.3776 28.1793L34.2345 27.9228H33.9409H15.6641V23.8447H34.4609H34.9609V23.3447V7.89941H47.0625V27.9228H40.4287H40.0077L39.936 28.3378ZM7.57023 21.2197H0.9375V1.19629H32.3359V21.2197H14.0601H13.7665L13.6234 21.4762L9.35688 29.1251L8.06294 21.6346L7.99127 21.2197H7.57023ZM12.3861 14.3687H12.3126C11.9664 13.2412 10.4767 12.7809 9.55963 13.698C8.51674 14.7409 9.25502 16.5245 10.7304 16.5245C11.6448 16.5245 12.3861 15.7832 12.3861 14.8687V14.3687ZM15.7455 13.7096L15.7454 13.7097C14.7079 14.7543 15.4475 16.5322 16.9201 16.5322C17.8388 16.5322 18.5819 15.7842 18.5757 14.8654V14.8654C18.5659 13.3929 16.7831 12.6651 15.7455 13.7096ZM24.7655 14.8687C24.7655 13.3934 22.982 12.6551 21.9391 13.698C20.8962 14.7409 21.6345 16.5245 23.1098 16.5245C24.0242 16.5245 24.7655 15.7832 24.7655 14.8687Z" stroke="white"/>
</svg>
