<svg width="67" height="57" viewBox="0 0 67 57" fill="none" xmlns="http://www.w3.org/2000/svg">
<path d="M24 9.5C27.05 9.5 29.9751 10.7116 32.1317 12.8683C34.2884 15.0249 35.5 17.95 35.5 21C35.5 24.05 34.2884 26.9751 32.1317 29.1317C29.9751 31.2884 27.05 32.5 24 32.5C20.95 32.5 18.0249 31.2884 15.8683 29.1317C13.7116 26.9751 12.5 24.05 12.5 21C12.5 17.95 13.7116 15.0249 15.8683 12.8683C18.0249 10.7116 20.95 9.5 24 9.5ZM24 39.5C27.9425 39.5 33.8793 40.4933 38.8178 42.4716C41.2867 43.4607 43.4746 44.6836 45.0373 46.1259C46.5966 47.565 47.5 49.1886 47.5 51V56.5H0.5V51C0.5 49.1886 1.40341 47.565 2.96271 46.1259C4.5254 44.6836 6.71333 43.4607 9.18219 42.4716C14.1207 40.4933 20.0575 39.5 24 39.5ZM47.2605 10.8088C52.6861 17.0584 52.6685 25.4422 47.2757 31.1764L42.8861 26.7607C45.2113 23.2152 45.2113 18.7548 42.8861 15.2093L47.2605 10.8088ZM53.0089 4.90817L57.2019 0.715208C68.3352 12.5455 68.2449 29.9253 57.2076 41.2905L53.0008 37.0836C61.0603 27.5045 61.0765 14.0484 53.0089 4.90817Z" stroke="white"/>
</svg>
