<svg width="67" height="57" viewBox="0 0 67 57" fill="none" xmlns="http://www.w3.org/2000/svg">
<path d="M24 9C27.1826 9 30.2348 10.2643 32.4853 12.5147C34.7357 14.7652 36 17.8174 36 21C36 24.1826 34.7357 27.2348 32.4853 29.4853C30.2348 31.7357 27.1826 33 24 33C20.8174 33 17.7652 31.7357 15.5147 29.4853C13.2643 27.2348 12 24.1826 12 21C12 17.8174 13.2643 14.7652 15.5147 12.5147C17.7652 10.2643 20.8174 9 24 9ZM24 39C32.01 39 48 43.02 48 51V57H0V51C0 43.02 15.99 39 24 39ZM47.28 10.08C53.34 16.68 53.34 25.83 47.28 31.89L42.24 26.82C44.76 23.28 44.76 18.69 42.24 15.15L47.28 10.08ZM57.21 0C69 12.15 68.91 30.33 57.21 42L52.32 37.11C60.63 27.57 60.63 13.95 52.32 4.89L57.21 0Z" fill="#F1C40F"/>
</svg>
