<svg width="60" height="48" viewBox="0 0 60 48" fill="none" xmlns="http://www.w3.org/2000/svg">
<path d="M45 36C43.35 36 42 34.65 42 33H18C18 34.65 16.65 36 15 36C13.35 36 12 34.65 12 33H0V42C0 45.3 2.7 48 6 48H54C57.3 48 60 45.3 60 42V33H48C48 34.65 46.65 36 45 36ZM54 12H45V6C45 2.7 42.3 0 39 0H21C17.7 0 15 2.7 15 6V12H6C2.7 12 0 14.7 0 18V30H12V27C12 25.35 13.35 24 15 24C16.65 24 18 25.35 18 27V30H42V27C42 25.35 43.35 24 45 24C46.65 24 48 25.35 48 27V30H60V18C60 14.7 57.3 12 54 12ZM39 12H21V6H39V12Z" fill="#F1C40F"/>
</svg>
