<svg width="62" height="63" viewBox="0 0 62 63" fill="none" xmlns="http://www.w3.org/2000/svg">
<path d="M62 17.0159C62 15.5111 61.8071 14.0448 61.4454 12.6554C61.1286 11.4341 59.6474 11.1436 58.7726 12.036L52.8378 18.0657C52.2724 18.6402 51.6011 19.0959 50.8624 19.4068C50.1236 19.7177 49.3318 19.8777 48.5322 19.8777C47.7326 19.8777 46.9408 19.7177 46.2021 19.4068C45.4633 19.0959 44.7921 18.6402 44.2267 18.0657C43.6613 17.4913 43.2127 16.8093 42.9067 16.0587C42.6007 15.3082 42.4432 14.5037 42.4432 13.6913C42.4432 12.8789 42.6007 12.0744 42.9067 11.3239C43.2127 10.5733 43.6613 9.89132 44.2267 9.31686L50.1614 3.29063C51.0398 2.39825 50.7539 0.893439 49.5518 0.57148C46.6047 -0.224947 43.4994 -0.188305 40.5713 0.67745C37.6432 1.5432 35.0035 3.20518 32.9372 5.48392C30.8709 7.76266 29.4565 10.5716 28.8468 13.6074C28.2371 16.6432 28.4552 19.7906 29.4776 22.7097C29.7221 23.4096 29.5843 24.1935 29.0711 24.7149L1.03333 53.2013C-0.344445 54.6011 -0.344445 56.8723 1.03333 58.2686L4.65689 61.9501C6.03467 63.35 8.26322 63.35 9.641 61.9501L37.6788 33.4638C38.1954 32.9388 38.967 32.7989 39.6524 33.0473C42.1786 33.9598 44.8835 34.2425 47.5396 33.8715C50.1957 33.5006 52.7253 32.4869 54.9154 30.9157C57.1056 29.3446 58.8922 27.2619 60.1251 24.8431C61.358 22.4242 62.001 19.7398 62 17.0159Z" fill="black"/>
</svg>
